<svg xmlns="http://www.w3.org/2000/svg" xmlns:xlink="http://www.w3.org/1999/xlink" width="369" zoomAndPan="magnify" viewBox="0 0 276.75 196.499994" height="262" preserveAspectRatio="xMidYMid meet" version="1.0"><defs><g/><clipPath id="c62e75ed55"><path d="M 81.179688 0 L 208 0 L 208 174 L 81.179688 174 Z M 81.179688 0 " clip-rule="nonzero"/></clipPath></defs><g clip-path="url(#c62e75ed55)"><path fill="#070304" d="M 89.457031 160.261719 C 90.738281 155.027344 94.15625 152.3125 99.558594 151.839844 C 98.773438 150.578125 97.996094 149.476562 97.359375 148.300781 C 91.703125 137.792969 96.640625 125.9375 108.089844 122.601562 C 109.082031 122.304688 109.015625 121.707031 109.179688 120.996094 C 110.390625 115.609375 110.039062 110.050781 111.074219 104.644531 C 111.9375 100.132812 113.320312 95.808594 115.804688 91.898438 C 116.25 91.199219 116.457031 90.609375 116.078125 89.746094 C 115.59375 88.636719 115.785156 87.519531 116.578125 86.503906 C 117.699219 85.089844 117.574219 82.757812 116.417969 81.390625 C 114.050781 78.59375 112.484375 75.359375 111.347656 71.558594 C 110.277344 73.1875 109.539062 74.722656 108.4375 76.015625 C 107.320312 77.332031 106.183594 78.621094 104.800781 79.695312 C 103.964844 80.339844 103.558594 80.472656 103.320312 79.199219 C 102.988281 77.398438 102.296875 75.683594 101.578125 73.996094 C 100.316406 71.074219 98.441406 68.691406 95.589844 67.15625 C 94.71875 66.683594 93.890625 66.113281 93.03125 65.609375 C 89.050781 63.269531 85.894531 60.300781 85.222656 55.015625 C 84.378906 56.183594 84.113281 57.152344 83.789062 58.109375 C 83.648438 58.535156 83.621094 59.21875 83.078125 59.21875 C 82.5 59.21875 82.578125 58.527344 82.492188 58.117188 C 81.183594 52.34375 81.886719 46.859375 85.011719 41.785156 C 88.386719 36.324219 93.117188 32.074219 97.730469 27.730469 C 100.214844 25.398438 102.792969 23.179688 105.464844 21.0625 C 109.492188 17.886719 113.984375 16.207031 119.175781 16.757812 C 119.773438 16.824219 120.292969 16.710938 120.816406 16.398438 C 127.183594 12.539062 132.546875 7.644531 136.585938 1.335938 C 136.898438 0.84375 137.085938 0 137.882812 0.207031 C 138.546875 0.378906 138.679688 1.128906 138.8125 1.746094 C 139.03125 2.816406 139.199219 3.898438 139.4375 5.207031 C 141.316406 3.507812 143.265625 2.164062 145.484375 1.242188 C 146.402344 0.863281 147.339844 0.523438 148.335938 0.390625 C 148.707031 0.339844 149.09375 0.378906 149.339844 0.703125 C 149.636719 1.089844 149.292969 1.394531 149.105469 1.679688 C 147.863281 3.507812 146.792969 5.414062 146.28125 7.605469 C 146.089844 8.402344 146.089844 8.839844 147.125 8.933594 C 154.476562 9.597656 161.113281 12.328125 167.367188 16.105469 C 168.265625 16.644531 169.121094 16.835938 170.171875 16.75 C 174.21875 16.425781 178.046875 17.308594 181.324219 19.707031 C 188.792969 25.152344 195.75 31.183594 201.824219 38.171875 C 206.800781 43.890625 208.355469 50.578125 206.980469 57.976562 C 206.894531 58.460938 206.96875 59.21875 206.382812 59.285156 C 205.757812 59.351562 205.757812 58.5625 205.546875 58.117188 C 205.113281 57.207031 204.894531 56.171875 204.183594 55.261719 C 203.757812 56.4375 203.417969 57.53125 202.972656 58.574219 C 201.417969 62.222656 198.28125 64.273438 195.046875 66.132812 C 191.210938 68.324219 188.292969 71.234375 186.972656 75.539062 C 186.574219 76.839844 186.121094 78.136719 185.894531 79.476562 C 185.695312 80.632812 185.351562 80.507812 184.652344 79.894531 C 182 77.558594 179.761719 74.894531 178.105469 71.425781 C 177.722656 72.390625 177.429688 73.09375 177.175781 73.8125 C 176.339844 76.15625 175.28125 78.453125 173.601562 80.234375 C 171.480469 82.492188 171.828125 84.644531 173.109375 87.007812 C 173.535156 87.792969 173.601562 88.683594 173.289062 89.453125 C 172.851562 90.523438 173.175781 91.300781 173.707031 92.214844 C 177.449219 98.558594 179.011719 105.507812 179.175781 112.792969 C 179.242188 115.800781 180.167969 118.683594 180.113281 121.679688 C 180.09375 122.628906 180.910156 122.496094 181.457031 122.667969 C 188.425781 124.875 192.820312 129.417969 193.949219 136.742188 C 194.660156 141.359375 193.636719 145.703125 191.164062 149.6875 C 190.746094 150.351562 190.289062 150.984375 189.695312 151.875 C 194.707031 152.207031 198.070312 154.675781 199.730469 159.332031 C 200.875 161.550781 200.527344 163.683594 199.257812 165.695312 C 197.871094 167.894531 195.710938 168.84375 193.21875 169.214844 C 188.839844 169.847656 184.433594 169.46875 180.035156 169.515625 C 178.378906 169.535156 176.976562 169.8125 175.828125 171.121094 C 174.863281 172.21875 173.507812 172.730469 172.085938 172.96875 C 167.480469 173.738281 162.863281 174.304688 158.183594 173.699219 C 157.300781 173.585938 156.402344 173.679688 155.511719 173.613281 C 152.867188 173.414062 150.480469 172.617188 148.6875 170.53125 C 148.089844 169.839844 147.371094 169.535156 146.480469 169.546875 C 145.902344 169.554688 145.324219 169.582031 144.753906 169.535156 C 142.945312 169.363281 141.457031 169.746094 140.128906 171.195312 C 138.746094 172.695312 136.773438 173.378906 134.757812 173.539062 C 129.277344 173.992188 123.792969 174.144531 118.324219 173.246094 C 116.085938 172.875 114.070312 172.132812 112.496094 170.445312 C 111.785156 169.6875 110.894531 169.546875 109.917969 169.546875 C 106.25 169.554688 102.582031 169.574219 98.914062 169.535156 C 96.800781 169.515625 94.746094 169.203125 92.851562 168.152344 C 91.484375 167.390625 90.472656 166.3125 89.675781 164.972656 C 88.773438 163.398438 89.277344 161.835938 89.457031 160.261719 Z M 89.457031 160.261719 " fill-opacity="1" fill-rule="nonzero"/></g><path fill="#fdfdfd" d="M 131.542969 165.589844 C 131.542969 165.535156 131.554688 165.484375 131.542969 165.429688 C 131.488281 164.839844 132.320312 163.996094 131.667969 163.777344 C 130.84375 163.511719 130.605469 164.59375 130.320312 165.230469 C 129.675781 166.652344 129.621094 168.179688 129.78125 169.707031 C 129.886719 170.675781 129.496094 171.054688 128.566406 171.035156 C 127.886719 171.023438 127.203125 171.0625 126.53125 171.0625 C 123.992188 171.054688 123.878906 170.929688 124.171875 168.339844 C 124.324219 166.984375 124.617188 165.65625 125.203125 164.40625 C 125.347656 164.109375 125.726562 163.710938 125.296875 163.429688 C 124.816406 163.105469 124.539062 163.609375 124.304688 163.910156 C 123.0625 165.449219 122.636719 167.269531 122.605469 169.195312 C 122.589844 170.113281 122.445312 170.789062 121.308594 170.484375 C 120.390625 170.238281 118.890625 170.910156 118.988281 169.015625 C 119.074219 167.25 119.441406 165.589844 120.484375 164.128906 C 120.683594 163.855469 121.089844 163.5625 120.636719 163.21875 C 120.265625 162.933594 119.953125 163.210938 119.667969 163.464844 C 118.113281 164.859375 117.585938 166.71875 117.460938 168.683594 C 117.375 170.039062 116.863281 169.839844 116.039062 169.347656 C 114.21875 168.265625 113.40625 166.347656 113.765625 163.910156 C 114.191406 161.019531 115.753906 158.640625 117.300781 156.277344 C 118.097656 155.0625 118.34375 153.945312 118.078125 152.484375 C 116.183594 141.964844 114.324219 131.4375 113.460938 120.777344 C 112.875 113.496094 112.769531 106.222656 115.140625 99.15625 C 115.234375 98.859375 115.367188 98.566406 115.472656 98.28125 C 116.410156 97.882812 116.703125 98.699219 116.988281 99.222656 C 119.042969 103.023438 122.21875 105.71875 125.695312 108.097656 C 131.023438 111.75 136.925781 113.855469 143.34375 114.539062 C 145.199219 114.738281 147 114.261719 148.761719 113.808594 C 157.292969 111.617188 164.730469 107.632812 170.292969 100.585938 C 170.949219 99.761719 171.488281 98.871094 172.078125 98 C 172.378906 97.550781 172.558594 96.898438 173.328125 97.03125 C 175.089844 100.832031 175.886719 104.875 176.179688 109.019531 C 176.699219 116.425781 175.886719 123.765625 174.871094 131.085938 C 173.847656 138.457031 172.523438 145.769531 171.175781 153.082031 C 170.96875 154.210938 171.136719 155.101562 171.746094 156.03125 C 173.101562 158.089844 174.371094 160.203125 175.097656 162.574219 C 175.992188 165.496094 175.316406 167.894531 173.308594 169.167969 C 172.078125 169.945312 171.886719 169.859375 171.8125 168.417969 C 171.726562 166.625 171.121094 165.039062 169.867188 163.742188 C 169.554688 163.417969 169.121094 162.964844 168.683594 163.316406 C 168.21875 163.695312 168.777344 164.042969 168.996094 164.359375 C 169.972656 165.808594 170.257812 167.449219 170.285156 169.148438 C 170.3125 171.007812 168.757812 170.246094 167.851562 170.492188 C 166.949219 170.742188 166.550781 170.351562 166.570312 169.347656 C 166.589844 167.714844 166.417969 166.09375 165.5 164.671875 C 165.148438 164.121094 164.855469 163.484375 163.820312 163.417969 C 164.210938 164.972656 164.875 166.339844 165.007812 167.847656 C 165.28125 170.996094 165.289062 171.023438 162.164062 171.042969 C 159.539062 171.0625 159.519531 171.0625 159.5 168.386719 C 159.492188 167.050781 159.253906 165.78125 158.589844 164.613281 C 158.316406 164.128906 158.109375 163.542969 157.132812 163.550781 C 157.792969 165.695312 158.316406 167.808594 157.917969 170 C 157.785156 170.238281 157.585938 170.492188 157.320312 170.4375 C 155.113281 169.953125 152.921875 169.433594 151.3125 167.640625 C 149.652344 165.78125 149.636719 163.695312 150.363281 161.484375 C 150.992188 159.074219 152.441406 157.179688 154.136719 155.433594 C 154.65625 154.902344 155.113281 154.398438 155.101562 153.554688 C 154.988281 144.347656 155.234375 135.128906 154.800781 125.917969 C 154.753906 125.007812 154.582031 124.109375 154.296875 123.1875 C 152.5625 127.199219 152.394531 131.449219 152.269531 135.707031 C 151.570312 139.1875 149.285156 141.585938 146.699219 143.71875 C 145.351562 144.832031 143.96875 144.753906 142.554688 143.570312 C 139.875 141.320312 137.816406 138.648438 137.191406 135.070312 C 137.050781 131.070312 136.804688 127.074219 135.269531 123.273438 C 134.652344 125.179688 134.492188 127.132812 134.480469 129.078125 C 134.425781 137.148438 134.445312 145.21875 134.386719 153.289062 C 134.378906 154.3125 134.851562 154.949219 135.515625 155.585938 C 138.007812 157.976562 139.417969 160.878906 139.714844 164.320312 C 138.984375 167.089844 135.410156 170.066406 132.578125 170.265625 C 131.855469 170.3125 131.316406 170.160156 131.382812 169.28125 C 131.488281 168.066406 131.230469 166.8125 131.542969 165.589844 Z M 131.542969 165.589844 " fill-opacity="1" fill-rule="nonzero"/><path fill="#fdfdfd" d="M 175.308594 70.863281 C 173.363281 77.769531 169.070312 82.730469 162.722656 85.953125 C 160.449219 87.101562 158.070312 87.984375 155.433594 88.808594 C 155.765625 87.992188 156.011719 87.386719 156.25 86.789062 C 153.09375 89.207031 150.667969 92.734375 146.070312 92.933594 C 146.441406 91.890625 147.472656 91.300781 147.3125 90.078125 C 146.554688 90.03125 146.121094 90.628906 145.578125 90.953125 C 141.617188 93.3125 139.597656 93.058594 136.445312 89.710938 C 135.335938 88.53125 134.28125 87.320312 133.089844 86 C 132.832031 87.054688 133.570312 87.707031 133.5625 88.515625 C 122.523438 85.867188 115.261719 78.8125 113.574219 68.644531 C 113.226562 65.34375 115.242188 63.324219 117.519531 61.496094 C 118.617188 60.613281 119.90625 59.949219 121.234375 59.511719 C 124.652344 58.382812 127.015625 56.097656 128.691406 53.007812 C 128.890625 52.636719 129.144531 52.304688 129.363281 51.953125 C 130.472656 50.9375 131.429688 49.808594 131.933594 48.359375 C 132.519531 45.285156 133.183594 42.230469 133.050781 39.054688 C 132.945312 36.675781 132.546875 34.371094 131.742188 32.152344 C 130.71875 29.296875 128.804688 28.421875 125.914062 29.429688 C 122.417969 30.652344 119.753906 32.917969 117.867188 36.078125 C 116.882812 37.726562 115.753906 39.320312 115.242188 41.226562 C 115.128906 41.664062 114.910156 42.097656 114.457031 42.328125 C 113.839844 42.0625 114.324219 41.425781 113.972656 41.09375 C 113.707031 38.039062 113.546875 34.976562 113.917969 31.921875 C 113.046875 29.996094 114.105469 28.328125 114.828125 26.753906 C 115.898438 24.394531 117.433594 22.269531 119.300781 20.417969 C 119.746094 19.972656 120.265625 19.878906 120.789062 19.6875 C 125.753906 16.890625 130.332031 13.628906 133.589844 8.828125 C 134.179688 7.964844 134.652344 7.027344 135.191406 6.136719 C 135.371094 5.84375 135.484375 5.386719 135.980469 5.558594 C 136.328125 5.679688 136.339844 6.042969 136.359375 6.355469 C 136.414062 7.351562 136.433594 8.347656 136.5 9.332031 C 136.539062 9.882812 136.746094 10.386719 137.304688 10.574219 C 137.847656 10.765625 138.175781 10.335938 138.5 10.003906 C 140.140625 8.335938 141.578125 6.457031 143.863281 5.207031 C 143.609375 6.640625 143.304688 7.890625 143.171875 9.160156 C 143.039062 10.433594 143.617188 11.34375 144.980469 11.4375 C 153.464844 12.042969 160.96875 15.335938 168.078125 19.746094 C 168.171875 19.785156 168.277344 19.792969 168.378906 19.832031 C 171.8125 21.167969 175.972656 28.375 175.449219 32.019531 C 175.328125 32.882812 175.28125 33.773438 175.515625 34.636719 C 175.621094 36.910156 175.582031 39.179688 175.222656 41.4375 C 174.75 42.429688 174.4375 41.929688 174.191406 41.304688 C 173.449219 39.386719 172.472656 37.585938 171.261719 35.953125 C 169.1875 33.148438 166.742188 30.726562 163.308594 29.597656 C 159.90625 28.472656 157.976562 29.402344 156.914062 32.816406 C 155.613281 36.988281 155.359375 41.226562 156.554688 45.484375 C 156.648438 45.835938 156.742188 46.1875 156.78125 46.558594 C 156.734375 49.011719 158.070312 50.710938 159.8125 52.210938 C 160.230469 52.875 160.503906 53.613281 160.855469 54.304688 C 162.277344 57.09375 164.628906 58.695312 167.46875 59.703125 C 171.003906 60.953125 173.640625 63.117188 174.964844 66.730469 C 175.476562 68.09375 175.601562 69.453125 175.308594 70.863281 Z M 175.308594 70.863281 " fill-opacity="1" fill-rule="nonzero"/><path fill="#f0b97c" d="M 175.515625 34.636719 C 175.097656 34.132812 175.222656 33.515625 175.261719 32.976562 C 175.515625 28.804688 173.554688 25.519531 171.023438 22.496094 C 170.160156 21.460938 169.195312 20.515625 168.078125 19.734375 C 172.671875 19.015625 176.964844 19.71875 180.679688 22.675781 C 188.226562 28.671875 195.804688 34.625 201.550781 42.515625 C 203.160156 44.734375 204.269531 47.171875 204.34375 50.007812 C 203.5 48.890625 202.980469 47.570312 202.003906 46.566406 C 201.671875 46.234375 201.378906 45.84375 201 45.570312 C 200.660156 45.324219 200.308594 44.753906 199.804688 45.132812 C 199.292969 45.515625 199.691406 45.976562 199.898438 46.386719 C 201.074219 48.679688 201.519531 51.128906 201.4375 53.6875 C 201.40625 54.429688 201.339844 55.148438 201.019531 55.832031 C 200.601562 56.953125 199.832031 57.75 198.847656 58.410156 C 196.726562 59.855469 194.402344 60.953125 192.195312 62.242188 C 189.191406 63.996094 186.773438 66.3125 185.25 69.480469 C 185.023438 69.945312 184.878906 70.578125 184.273438 70.597656 C 183.570312 70.617188 183.402344 69.925781 183.203125 69.414062 C 181.828125 65.789062 180.710938 62.089844 179.621094 58.382812 C 179.175781 56.875 178.738281 55.367188 178.113281 53.925781 C 177.144531 51.699219 177.117188 49.382812 177.429688 47.023438 C 177.59375 42.945312 177.808594 38.855469 176.730469 34.84375 C 176.484375 33.914062 176.152344 33.015625 175.515625 32.179688 C 175.515625 33.003906 175.515625 33.820312 175.515625 34.636719 Z M 175.515625 34.636719 " fill-opacity="1" fill-rule="nonzero"/><path fill="#f0b97d" d="M 120.789062 19.6875 C 117.089844 22.980469 114.316406 26.792969 113.917969 31.933594 C 113.140625 31.855469 113.167969 32.550781 113.007812 32.976562 C 112.023438 35.546875 111.585938 38.238281 111.585938 40.972656 C 111.59375 44.035156 111.492188 47.117188 112.097656 50.152344 C 112.457031 52.636719 111.8125 55.027344 111.445312 57.445312 C 110.648438 62.546875 109.015625 67.414062 107.007812 72.144531 C 106.820312 72.601562 106.714844 73.265625 106.03125 73.199219 C 105.453125 73.140625 105.425781 72.535156 105.3125 72.105469 C 104.183594 67.933594 101.4375 65.003906 98.082031 62.519531 C 96.488281 61.332031 94.859375 60.195312 93.476562 58.734375 C 90.054688 55.140625 89.316406 50.824219 89.894531 46.082031 C 90.109375 44.308594 90.367188 42.582031 91.210938 40.980469 C 90.433594 42.441406 89.988281 44.109375 88.5 45.097656 C 87.144531 46.273438 86.214844 47.800781 85.070312 49.5625 C 84.984375 48.425781 85.277344 47.6875 85.570312 46.957031 C 87.089844 43.132812 89.609375 39.992188 92.386719 37.042969 C 96.914062 32.234375 101.816406 27.824219 106.902344 23.605469 C 110.960938 20.21875 115.574219 18.921875 120.789062 19.6875 Z M 120.789062 19.6875 " fill-opacity="1" fill-rule="nonzero"/><path fill="#c0bfbf" d="M 105.085938 126.867188 C 106.65625 125.632812 108.601562 125.359375 110.429688 124.78125 C 111.140625 124.5625 111.195312 125.019531 111.246094 125.53125 C 112.050781 134.824219 113.859375 143.976562 115.347656 153.175781 C 115.460938 153.859375 115.339844 154.390625 114.976562 154.941406 C 112.808594 158.257812 110.875 161.664062 111.082031 165.835938 C 111.121094 166.511719 110.722656 166.605469 110.191406 166.597656 C 106.894531 166.578125 103.597656 166.558594 100.296875 166.578125 C 99.457031 166.585938 99.226562 166.214844 99.21875 165.4375 C 99.207031 163.457031 99.691406 161.605469 100.460938 159.804688 C 100.621094 159.417969 101.085938 158.855469 100.515625 158.574219 C 100.042969 158.335938 99.691406 158.921875 99.4375 159.292969 C 98.28125 160.992188 97.84375 162.90625 97.738281 164.9375 C 97.710938 165.410156 98.136719 166.378906 97.011719 166.265625 C 96.109375 166.167969 95.246094 166.007812 95.304688 164.707031 C 95.378906 163.21875 95.578125 161.796875 96.269531 160.460938 C 96.546875 159.929688 96.773438 159.378906 96.878906 158.773438 C 94.289062 159.976562 94.042969 162.394531 93.789062 164.9375 C 92.660156 164.359375 92.300781 163.4375 92.1875 162.367188 C 91.808594 158.800781 94.089844 155.605469 97.710938 154.910156 C 100.820312 154.3125 103.957031 154.078125 106.789062 156.039062 C 107.074219 156.230469 107.367188 156.503906 108.117188 156.34375 C 105.539062 153.613281 102.515625 151.507812 100.660156 148.367188 C 100.175781 145.160156 100.089844 141.929688 100.507812 138.722656 C 101.007812 134.84375 102.261719 131.203125 104.542969 127.976562 C 104.78125 127.644531 105.046875 127.304688 105.085938 126.867188 Z M 105.085938 126.867188 " fill-opacity="1" fill-rule="nonzero"/><path fill="#c0bfbf" d="M 173.355469 97.039062 C 172.113281 98.253906 171.449219 99.886719 170.351562 101.214844 C 163.878906 109.066406 155.339844 113.199219 145.523438 114.859375 C 141.957031 115.46875 138.441406 114.300781 135.089844 113.191406 C 128.996094 111.179688 123.679688 107.851562 119.261719 103.128906 C 118.246094 102.046875 117.539062 100.785156 116.75 99.5625 C 116.429688 99.058594 116.277344 98.359375 115.5 98.28125 C 115.90625 96.367188 116.996094 94.765625 117.851562 92.847656 C 122.882812 98.851562 129.460938 101.945312 136.546875 104.164062 C 137.304688 104.398438 137.570312 104.796875 137.695312 105.585938 C 138.28125 109.1875 140.394531 111.730469 143.464844 113.570312 C 144.308594 114.074219 145.097656 113.863281 145.835938 113.429688 C 148.867188 111.675781 150.839844 109.113281 151.21875 105.585938 C 151.332031 104.515625 151.730469 104.230469 152.621094 103.964844 C 159.160156 101.992188 165.253906 99.191406 170.144531 94.234375 C 170.511719 93.863281 170.871094 93.484375 171.234375 93.113281 C 171.261719 93.085938 171.328125 93.074219 171.46875 93.019531 C 172.304688 94.242188 172.976562 95.570312 173.355469 97.039062 Z M 173.355469 97.039062 " fill-opacity="1" fill-rule="nonzero"/><path fill="#eeb97f" d="M 156.421875 46.640625 C 154.941406 41.851562 155.074219 37.082031 156.636719 32.351562 C 157.71875 29.070312 159.792969 28.007812 163.042969 29.058594 C 167.8125 30.59375 170.84375 34.085938 173.203125 38.277344 C 173.761719 39.273438 174.371094 40.257812 174.605469 41.40625 C 174.757812 42.148438 175.015625 41.292969 175.214844 41.445312 C 174.976562 44.507812 174.804688 47.582031 174.503906 50.644531 C 174.027344 55.378906 174.398438 60.050781 175.648438 64.613281 C 176.246094 66.796875 175.886719 68.816406 175.289062 70.875 C 175.050781 65.277344 172.246094 61.636719 166.921875 59.917969 C 163.160156 58.707031 160.828125 56.089844 159.59375 52.398438 C 160.03125 52 160.484375 52.285156 160.921875 52.371094 C 164.097656 53.042969 166.949219 51.148438 167.535156 47.960938 C 167.574219 47.75 167.574219 47.542969 167.621094 47.34375 C 167.878906 46.121094 168.296875 45.96875 169.308594 46.71875 C 169.601562 46.9375 169.800781 47.257812 170.226562 47.457031 C 169.375 45.066406 168.019531 43.191406 165.839844 41.964844 C 162.183594 39.925781 158.191406 41.617188 157.082031 45.65625 C 157 46.042969 157.140625 46.660156 156.421875 46.640625 Z M 156.421875 46.640625 " fill-opacity="1" fill-rule="nonzero"/><path fill="#efb87f" d="M 113.972656 41.105469 C 114.136719 41.417969 114.285156 41.71875 114.476562 42.082031 C 115.804688 38.324219 117.59375 34.871094 120.511719 32.167969 C 122.3125 30.5 124.378906 29.191406 126.863281 28.6875 C 129.078125 28.234375 130.796875 29.011719 131.734375 31.058594 C 133.476562 34.882812 133.734375 38.933594 133.304688 43.027344 C 133.117188 44.867188 132.605469 46.679688 132.234375 48.5 C 131.636719 48.035156 131.769531 47.363281 131.800781 46.765625 C 131.886719 44.441406 130.699219 42.914062 128.785156 41.851562 C 126.816406 40.761719 124.796875 40.90625 122.984375 42.089844 C 121.042969 43.371094 119.621094 45.183594 118.777344 47.496094 C 119.308594 47.476562 119.554688 47.105469 119.886719 46.917969 C 120.75 46.433594 121.070312 46.765625 121.261719 47.636719 C 122.160156 51.726562 124.550781 53.1875 128.566406 52.152344 C 128.917969 52.058594 129.269531 51.914062 129.621094 52.144531 C 127.808594 55.957031 125.136719 58.753906 120.988281 60.0625 C 118.996094 60.6875 117.234375 61.863281 115.859375 63.515625 C 114.609375 65.003906 113.652344 66.625 113.585938 68.644531 C 113.214844 67.867188 113.0625 67.0625 113.339844 66.226562 C 115.488281 59.816406 115.195312 53.28125 114.390625 46.699219 C 114.164062 44.851562 113.851562 42.992188 113.972656 41.105469 Z M 113.972656 41.105469 " fill-opacity="1" fill-rule="nonzero"/><path fill="#fdfdfd" d="M 174.910156 148.585938 C 176.113281 141 177.515625 133.429688 178.285156 125.777344 C 178.339844 125.179688 178.273438 124.722656 179.242188 124.941406 C 192.59375 127.949219 193.863281 141.367188 188.480469 148.644531 C 187.816406 149.429688 186.917969 149.144531 186.148438 149.023438 C 182.84375 148.511719 179.640625 148.851562 176.472656 149.886719 C 174.949219 150.367188 174.75 150.152344 174.910156 148.585938 Z M 174.910156 148.585938 " fill-opacity="1" fill-rule="nonzero"/><path fill="#c1bfbf" d="M 137.210938 135.089844 C 138.367188 138.019531 139.902344 140.695312 142.28125 142.839844 C 144.128906 144.507812 145.457031 144.488281 147.304688 142.800781 C 149.492188 140.800781 151.09375 138.410156 152.289062 135.726562 C 152.296875 141.332031 152.296875 146.925781 152.335938 152.53125 C 152.335938 153.242188 152.023438 153.699219 151.597656 154.179688 C 148.660156 157.460938 146.773438 161.152344 147.21875 165.703125 C 147.285156 166.433594 147.039062 166.625 146.375 166.605469 C 145.171875 166.578125 143.789062 166.984375 142.8125 166.519531 C 141.644531 165.96875 142.640625 164.519531 142.488281 163.457031 C 141.988281 159.949219 140.460938 156.980469 138.121094 154.410156 C 137.429688 153.648438 137.152344 152.890625 137.164062 151.894531 C 137.203125 146.289062 137.203125 140.695312 137.210938 135.089844 Z M 137.210938 135.089844 " fill-opacity="1" fill-rule="nonzero"/><path fill="#c1bfbf" d="M 169.480469 84.785156 C 169.878906 86.03125 169.453125 86.824219 168.855469 87.613281 C 165.519531 92.050781 160.828125 94.515625 155.863281 96.621094 C 152.914062 97.875 149.710938 98.292969 146.765625 99.507812 C 146.214844 99.734375 146.167969 99.34375 145.9375 99.089844 C 145.390625 98.464844 144.433594 98.179688 143.96875 98.644531 C 142.765625 99.839844 141.761719 98.910156 140.652344 98.671875 C 136.007812 97.683594 131.609375 96.074219 127.507812 93.683594 C 124.957031 92.195312 122.605469 90.457031 120.902344 87.992188 C 120.34375 87.1875 119.765625 86.351562 119.964844 85.101562 C 120.675781 85.566406 121.308594 85.980469 121.933594 86.398438 C 125.496094 88.789062 129.429688 90.335938 133.542969 91.445312 C 134.460938 91.691406 135.238281 92.117188 135.988281 92.742188 C 137.875 94.320312 139.988281 95.398438 142.585938 95.078125 C 142.992188 95.03125 143.4375 95.058594 143.824219 95.179688 C 147.578125 96.328125 150.546875 94.632812 153.40625 92.554688 C 153.785156 92.28125 154.070312 91.917969 154.5625 91.796875 C 159.925781 90.421875 164.988281 88.382812 169.480469 84.785156 Z M 169.480469 84.785156 " fill-opacity="1" fill-rule="nonzero"/><path fill="#c0bebe" d="M 174.910156 148.585938 C 175.203125 148.925781 174.519531 150.085938 175.808594 149.601562 C 179.695312 148.148438 183.683594 148.046875 187.730469 148.746094 C 187.96875 148.785156 188.234375 148.679688 188.480469 148.644531 C 187.144531 150.9375 185.078125 152.539062 183.171875 154.296875 C 182.386719 155.015625 181.496094 155.640625 181.011719 156.78125 C 184.027344 154.835938 187.152344 153.699219 190.707031 154.875 C 190.679688 154.910156 190.640625 154.988281 190.613281 154.988281 C 188.394531 155.042969 188.207031 156.636719 187.941406 158.316406 C 187.636719 160.214844 186.9375 162.035156 186.546875 163.921875 C 186.347656 164.878906 186.375 165.722656 186.878906 166.546875 C 184.261719 166.566406 181.648438 166.578125 179.042969 166.605469 C 178.417969 166.613281 178.085938 166.480469 178.132812 165.734375 C 178.351562 162.089844 176.863281 158.972656 174.964844 156.039062 C 174.09375 154.703125 173.773438 153.460938 174.21875 151.933594 C 174.519531 150.84375 174.671875 149.703125 174.910156 148.585938 Z M 174.910156 148.585938 " fill-opacity="1" fill-rule="nonzero"/><path fill="#9c5d36" d="M 88.492188 45.097656 C 89.542969 43.285156 90.59375 41.464844 91.636719 39.652344 C 91.25 41.898438 90.433594 43.96875 90.214844 46.234375 C 89.65625 52.011719 91.03125 56.921875 95.976562 60.433594 C 97.378906 61.429688 98.746094 62.5 100.082031 63.582031 C 103.09375 66.027344 105.113281 69.121094 105.976562 73.273438 C 109.546875 65.734375 111.234375 58.050781 112.089844 50.140625 C 112.675781 53.367188 112.535156 56.601562 112.011719 59.789062 C 111.167969 64.898438 109.660156 69.773438 106.449219 73.964844 C 106.097656 74.421875 105.84375 74.941406 105.246094 75.199219 C 104.648438 74.628906 104.554688 73.804688 104.25 73.113281 C 102.410156 68.890625 99.191406 66.019531 95.296875 63.75 C 92.945312 62.386719 90.554688 61.011719 89.191406 58.496094 C 86.972656 54.417969 87.636719 50.332031 89.351562 46.273438 C 89.515625 45.894531 89.863281 45.484375 89.628906 45.105469 C 89.324219 44.601562 88.878906 45.238281 88.492188 45.097656 Z M 88.492188 45.097656 " fill-opacity="1" fill-rule="nonzero"/><path fill="#9a5d34" d="M 177.429688 47.03125 C 176.898438 50.472656 178.519531 53.433594 179.496094 56.554688 C 180.765625 60.59375 181.886719 64.679688 183.34375 68.65625 C 183.570312 69.28125 183.703125 69.953125 184.339844 70.570312 C 185.5625 67.261719 187.664062 64.699219 190.507812 62.832031 C 192.601562 61.457031 194.847656 60.328125 197.019531 59.066406 C 198.507812 58.203125 199.949219 57.253906 201 55.851562 C 200.46875 58.5625 198.621094 60.300781 196.515625 61.816406 C 195.292969 62.699219 193.996094 63.496094 192.699219 64.273438 C 188.785156 66.617188 185.988281 69.867188 184.460938 74.191406 C 184.347656 74.523438 184.367188 75.027344 183.96875 75.113281 C 183.476562 75.21875 183.316406 74.6875 183.089844 74.375 C 179.515625 69.46875 177.855469 63.867188 177.082031 57.917969 C 176.664062 54.769531 177.109375 51.660156 177.117188 48.53125 C 177.136719 48.027344 177.03125 47.46875 177.429688 47.03125 Z M 177.429688 47.03125 " fill-opacity="1" fill-rule="nonzero"/><path fill="#f9f9f9" d="M 186.871094 166.539062 C 185.929688 166.347656 185.703125 165.761719 185.921875 164.890625 C 186.394531 162.964844 186.839844 161.039062 187.304688 159.113281 C 187.429688 158.609375 187.53125 158.089844 187.695312 157.59375 C 187.96875 156.75 187.335938 155.566406 188.109375 155.09375 C 188.765625 154.683594 189.828125 154.921875 190.699219 154.875 C 191.378906 155.488281 192.289062 155.0625 193.066406 155.40625 C 195.589844 156.535156 197.339844 159.21875 197.3125 162.023438 C 197.304688 163.277344 196.78125 164.195312 195.671875 164.992188 C 195.378906 162.480469 195.324219 159.957031 192.667969 158.621094 C 192.328125 159.386719 192.878906 159.804688 193.097656 160.269531 C 193.75 161.671875 194.070312 163.125 194.054688 164.671875 C 194.042969 165.535156 193.664062 166.027344 192.8125 166.207031 C 192.015625 166.378906 191.542969 166.332031 191.570312 165.289062 C 191.628906 163.550781 191.371094 161.824219 190.546875 160.269531 C 190.175781 159.566406 189.882812 158.707031 188.90625 158.523438 C 188.472656 159.09375 188.9375 159.558594 189.105469 159.984375 C 189.75 161.558594 189.941406 163.199219 190.074219 164.878906 C 190.175781 166.207031 189.730469 166.738281 188.414062 166.597656 C 187.921875 166.546875 187.390625 166.558594 186.871094 166.539062 Z M 186.871094 166.539062 " fill-opacity="1" fill-rule="nonzero"/><path fill="#dda979" d="M 149.519531 105.441406 C 149.140625 107.984375 147.589844 110.050781 145.304688 111.636719 C 144.621094 112.109375 143.996094 111.796875 143.429688 111.378906 C 141.457031 109.949219 140.042969 108.109375 139.496094 105.699219 C 138.984375 103.441406 140.261719 102.105469 142.574219 102.410156 C 142.785156 102.4375 143.125 102.523438 143.179688 102.4375 C 144.648438 100.132812 146.0625 102.890625 147.644531 102.542969 C 148.839844 102.277344 149.484375 103.8125 149.519531 105.441406 Z M 149.519531 105.441406 " fill-opacity="1" fill-rule="nonzero"/><path fill="#b37752" d="M 140.566406 100.691406 C 138.964844 102.191406 137.363281 102.617188 135.304688 101.800781 C 130.566406 99.933594 125.960938 97.867188 122.085938 94.46875 C 120.503906 93.085938 119.128906 91.519531 118.144531 89.644531 C 117.898438 89.179688 117.660156 88.703125 117.886719 88.152344 C 118.058594 87.746094 118.34375 87.480469 118.675781 87.964844 C 123.867188 95.683594 132.027344 98.253906 140.375 100.519531 C 140.414062 100.550781 140.441406 100.597656 140.566406 100.691406 Z M 140.566406 100.691406 " fill-opacity="1" fill-rule="nonzero"/><path fill="#fafaf9" d="M 105.085938 126.867188 C 105.578125 127 105.804688 127.085938 105.351562 127.664062 C 102.875 130.878906 101.550781 134.570312 100.992188 138.5625 C 100.59375 141.414062 100.601562 144.269531 100.960938 147.125 C 101.019531 147.597656 101.191406 148.054688 100.667969 148.378906 C 95.96875 140.855469 97.125 132.757812 103.625 127.769531 C 104.078125 127.417969 104.601562 127.160156 105.085938 126.867188 Z M 105.085938 126.867188 " fill-opacity="1" fill-rule="nonzero"/><path fill="#bb7b57" d="M 148.847656 100.699219 C 152.875 99.875 156.648438 98.519531 160.238281 96.707031 C 164.25 94.699219 167.980469 92.328125 170.492188 88.449219 C 170.683594 88.164062 170.871094 87.699219 171.316406 87.992188 C 171.648438 88.21875 171.582031 88.648438 171.46875 89.007812 C 170.949219 90.601562 169.867188 91.832031 168.703125 92.953125 C 164.589844 96.917969 159.644531 99.46875 154.335938 101.414062 C 153.996094 101.535156 153.632812 101.628906 153.300781 101.78125 C 151.664062 102.542969 150.117188 102.691406 148.847656 100.699219 Z M 148.847656 100.699219 " fill-opacity="1" fill-rule="nonzero"/><path fill="#c6c2c2" d="M 131.542969 165.589844 C 131.542969 166.679688 131.574219 167.761719 131.535156 168.851562 C 131.496094 169.847656 131.847656 170.132812 132.832031 169.847656 C 135.894531 168.957031 138.300781 167.277344 139.722656 164.359375 C 139.742188 168.4375 136.046875 171.554688 132.054688 170.863281 C 131.5625 170.777344 131.257812 170.570312 131.242188 170.085938 C 131.191406 168.570312 130.898438 167.042969 131.542969 165.589844 Z M 131.542969 165.589844 " fill-opacity="1" fill-rule="nonzero"/><path fill="#bdb9b9" d="M 150.394531 161.492188 C 149.976562 163.722656 149.9375 165.855469 151.804688 167.554688 C 153.550781 169.128906 155.585938 169.953125 157.9375 170.011719 C 158.042969 170.492188 157.792969 170.703125 157.359375 170.703125 C 154.980469 170.683594 152.582031 170.53125 151.039062 168.398438 C 149.511719 166.273438 149.265625 163.910156 150.394531 161.492188 Z M 150.394531 161.492188 " fill-opacity="1" fill-rule="nonzero"/><path fill="#0b0205" d="M 145.683594 53.917969 C 147.816406 53.933594 150.507812 54.484375 152.953125 55.957031 C 154.867188 57.101562 155.339844 58.394531 154.554688 60.480469 C 153.132812 64.246094 150.441406 66.890625 146.933594 68.691406 C 145.75 69.300781 145.722656 69.820312 146.28125 70.828125 C 148.546875 74.839844 151.644531 77.710938 156.476562 77.921875 C 160.609375 78.089844 163.566406 75.511719 164.199219 71.425781 C 164.332031 70.589844 164.484375 69.832031 165.574219 69.917969 C 166.789062 70.011719 166.761719 70.910156 166.730469 71.765625 C 166.5625 76.148438 162.960938 79.769531 158.171875 80.40625 C 156.96875 80.566406 155.746094 80.652344 154.582031 80.375 C 153.386719 80.09375 152.667969 80.28125 152.183594 81.554688 C 151.84375 82.445312 151.140625 83.242188 150.480469 83.972656 C 146.886719 87.917969 141.363281 87.640625 138.121094 83.394531 C 137.714844 82.851562 137.269531 82.292969 137.039062 81.667969 C 136.605469 80.441406 136.027344 80.113281 134.625 80.347656 C 130.519531 81.03125 126.9375 79.894531 124.292969 76.507812 C 123.128906 75.019531 122.597656 73.265625 122.589844 71.375 C 122.589844 70.578125 122.824219 69.898438 123.820312 69.898438 C 124.683594 69.886719 124.949219 70.410156 125.082031 71.1875 C 126.085938 76.90625 131.023438 79.515625 136.347656 77.152344 C 139.382812 75.804688 141.609375 73.585938 143.179688 70.695312 C 143.636719 69.859375 143.570312 69.394531 142.59375 68.890625 C 139.34375 67.222656 136.785156 64.792969 135.257812 61.410156 C 133.941406 58.476562 134.519531 56.960938 137.402344 55.578125 C 139.777344 54.398438 142.328125 53.917969 145.683594 53.917969 Z M 145.683594 53.917969 " fill-opacity="1" fill-rule="nonzero"/><path fill="#0d0206" d="M 129.609375 52.144531 C 126.207031 54.171875 120.921875 52.609375 120.816406 46.746094 C 119.867188 47.125 119.253906 47.894531 118.550781 48.5 C 117.992188 48.253906 118.21875 47.882812 118.34375 47.570312 C 119.308594 45.097656 120.664062 42.894531 123.050781 41.578125 C 125.230469 40.375 127.476562 40.382812 129.589844 41.796875 C 131.636719 43.160156 132.578125 45.097656 132.300781 47.570312 C 132.265625 47.882812 132.265625 48.199219 132.246094 48.5 C 131.789062 50.019531 130.84375 51.183594 129.609375 52.144531 Z M 129.609375 52.144531 " fill-opacity="1" fill-rule="nonzero"/><path fill="#0c0205" d="M 156.421875 46.640625 C 157.464844 42.328125 160.003906 40.289062 163.726562 40.773438 C 167.082031 41.207031 170.503906 44.90625 170.804688 48.632812 C 169.878906 47.789062 169.070312 47.050781 168.179688 46.242188 C 167.148438 52.039062 164.304688 54.011719 159.625 52.390625 C 157.480469 51.070312 156.507812 49.109375 156.421875 46.640625 Z M 156.421875 46.640625 " fill-opacity="1" fill-rule="nonzero"/><path fill="#361b0e" d="M 169.386719 37.785156 C 167.308594 36.210938 165.546875 34.902344 163.339844 34.492188 C 163.082031 34.445312 162.789062 34.324219 162.929688 33.992188 C 163.09375 33.621094 163.480469 33.554688 163.851562 33.496094 C 166 33.136719 168.636719 34.96875 169.386719 37.785156 Z M 169.386719 37.785156 " fill-opacity="1" fill-rule="nonzero"/><path fill="#33170f" d="M 119.5 37.59375 C 119.71875 35.222656 122.625 33.214844 124.976562 33.535156 C 125.289062 33.582031 125.628906 33.621094 125.695312 33.992188 C 125.734375 34.21875 125.515625 34.351562 125.296875 34.398438 C 123.175781 34.890625 121.433594 36.132812 119.5 37.59375 Z M 119.5 37.59375 " fill-opacity="1" fill-rule="nonzero"/><path fill="#f7f3e9" d="M 143.875 104.550781 C 144.964844 104.65625 146.054688 104.777344 147.132812 104.863281 C 148.101562 104.949219 148.003906 105.414062 147.539062 105.984375 C 146.953125 106.703125 146.382812 107.480469 145.691406 108.097656 C 145.164062 108.574219 144.859375 109.757812 143.722656 108.988281 C 142.519531 108.175781 141.277344 105.984375 141.644531 105.1875 C 142.140625 104.132812 143.125 104.742188 143.875 104.550781 Z M 143.875 104.550781 " fill-opacity="1" fill-rule="nonzero"/><path fill="#fcacae" d="M 143.769531 74.429688 C 143.890625 76.414062 143.75 78.128906 144.082031 79.808594 C 144.15625 80.207031 144.109375 80.824219 144.601562 80.832031 C 145.292969 80.839844 145.058594 80.128906 145.085938 79.742188 C 145.238281 78.082031 145.3125 76.414062 145.425781 74.722656 C 146.054688 74.667969 146.195312 75.21875 146.5 75.519531 C 147.378906 76.414062 148.222656 77.34375 149.265625 78.0625 C 151.386719 79.523438 151.378906 79.523438 149.890625 81.667969 C 148.367188 83.859375 146.328125 85.101562 143.625 84.738281 C 140.90625 84.378906 139.382812 82.492188 138.28125 80.148438 C 138.054688 79.664062 137.980469 79.265625 138.539062 78.953125 C 140.507812 77.863281 142.121094 76.328125 143.769531 74.429688 Z M 143.769531 74.429688 " fill-opacity="1" fill-rule="nonzero"/><path fill="#f1f0f0" d="M 152.195312 58.914062 C 147.144531 58.476562 142.242188 58.363281 137.277344 59.046875 C 139.996094 55.90625 149.113281 55.785156 152.195312 58.914062 Z M 152.195312 58.914062 " fill-opacity="1" fill-rule="nonzero"/><path fill="#dad8d8" d="M 129.03125 44.8125 C 128.976562 45.523438 128.519531 45.808594 127.886719 45.828125 C 127.261719 45.84375 126.929688 45.464844 126.871094 44.878906 C 126.816406 44.289062 127.03125 43.816406 127.6875 43.789062 C 128.378906 43.757812 128.882812 44.089844 129.03125 44.8125 Z M 129.03125 44.8125 " fill-opacity="1" fill-rule="nonzero"/><path fill="#f2f1f2" d="M 165.898438 45.730469 C 165.726562 46.792969 165.167969 47.542969 164.070312 47.503906 C 162.980469 47.46875 162.371094 46.691406 162.371094 45.628906 C 162.371094 44.652344 163.035156 44.082031 163.984375 44.070312 C 165.042969 44.070312 165.746094 44.613281 165.898438 45.730469 Z M 165.898438 45.730469 " fill-opacity="1" fill-rule="nonzero"/><g fill="#f0b97d" fill-opacity="1"><g transform="translate(29.618226, 157.488369)"><g><path d="M 47.453125 -9.941406 C 47.464844 -9.867188 47.476562 -9.804688 47.492188 -9.757812 L 47.671875 -9.214844 L 47.65625 -8.644531 C 47.601562 -6.632812 47.121094 -4.894531 46.214844 -3.433594 C 45.175781 -1.757812 43.714844 -0.648438 41.832031 -0.109375 L 40.9375 -3.238281 L 41.933594 -0.140625 C 40.085938 0.453125 38.292969 0.378906 36.546875 -0.359375 C 34.90625 -1.050781 33.597656 -2.195312 32.617188 -3.789062 C 31.792969 -5.1875 31.113281 -6.851562 30.578125 -8.78125 L 30.554688 -8.867188 C 30.507812 -9.046875 30.433594 -9.207031 30.320312 -9.351562 C 30.496094 -9.121094 30.695312 -8.964844 30.910156 -8.878906 C 30.929688 -8.875 30.941406 -8.867188 30.953125 -8.867188 C 30.949219 -8.867188 30.941406 -8.867188 30.929688 -8.871094 C 30.871094 -8.882812 30.789062 -8.886719 30.691406 -8.890625 L 27.351562 -9.007812 L 24 -9.121094 C 22.511719 -9.199219 21.023438 -9.269531 19.535156 -9.324219 C 18.042969 -9.382812 16.554688 -9.429688 15.066406 -9.46875 L 15.148438 -12.71875 L 15.148438 -9.46875 C 15.359375 -9.46875 15.550781 -9.5 15.714844 -9.5625 C 15.746094 -9.578125 15.773438 -9.589844 15.792969 -9.597656 C 15.789062 -9.597656 15.773438 -9.585938 15.757812 -9.574219 C 15.664062 -9.507812 15.589844 -9.449219 15.535156 -9.398438 C 15.527344 -9.386719 15.519531 -9.378906 15.515625 -9.375 C 15.523438 -9.386719 15.53125 -9.398438 15.542969 -9.414062 L 12.835938 -11.21875 L 15.660156 -9.601562 C 15.375 -9.101562 15.097656 -8.59375 14.828125 -8.074219 C 14.546875 -7.53125 14.273438 -6.992188 14.011719 -6.46875 L 13.171875 -4.789062 C 12.832031 -4.105469 12.457031 -3.445312 12.046875 -2.808594 L 9.308594 -4.566406 L 12.128906 -2.949219 C 11.109375 -1.171875 9.875 0.0507812 8.425781 0.714844 C 6.71875 1.496094 4.941406 1.480469 3.085938 0.664062 L 4.394531 -2.3125 L 3.1875 0.707031 C 1.667969 0.101562 0.484375 -1.023438 -0.371094 -2.660156 C -1.265625 -4.378906 -1.386719 -6.285156 -0.734375 -8.371094 C 0.644531 -12.660156 2.40625 -17.5 4.554688 -22.886719 C 5.929688 -26.347656 7.65625 -30.234375 9.734375 -34.542969 C 10.332031 -35.78125 11 -37.085938 11.734375 -38.457031 C 12.496094 -39.875 13.328125 -41.265625 14.234375 -42.625 C 15.429688 -44.335938 17.085938 -45.796875 19.207031 -47.003906 L 20.816406 -44.175781 L 19.128906 -46.957031 C 20.917969 -48.042969 22.695312 -48.582031 24.457031 -48.582031 C 26.140625 -48.582031 27.675781 -48.117188 29.074219 -47.179688 C 30.328125 -46.339844 31.417969 -45.136719 32.34375 -43.578125 C 35.039062 -38.972656 37.671875 -34.183594 40.242188 -29.21875 C 42.882812 -24.117188 45.023438 -18.746094 46.660156 -13.109375 C 46.824219 -12.582031 46.96875 -12.0625 47.097656 -11.542969 C 47.226562 -11.03125 47.335938 -10.554688 47.421875 -10.121094 L 47.441406 -10.03125 Z M 41.011719 -9.023438 L 44.234375 -9.484375 L 41.042969 -8.84375 C 40.976562 -9.179688 40.890625 -9.554688 40.789062 -9.964844 C 40.6875 -10.371094 40.5625 -10.8125 40.414062 -11.292969 C 38.894531 -16.523438 36.910156 -21.503906 34.464844 -26.230469 C 31.945312 -31.09375 29.375 -35.773438 26.75 -40.261719 C 26.324219 -40.976562 25.890625 -41.480469 25.449219 -41.777344 C 25.152344 -41.976562 24.820312 -42.078125 24.457031 -42.078125 C 23.90625 -42.078125 23.253906 -41.851562 22.5 -41.394531 L 22.421875 -41.347656 C 21.152344 -40.625 20.226562 -39.847656 19.648438 -39.015625 C 18.855469 -37.832031 18.128906 -36.621094 17.464844 -35.382812 C 16.773438 -34.089844 16.148438 -32.871094 15.59375 -31.71875 C 13.582031 -27.546875 11.917969 -23.800781 10.597656 -20.476562 C 8.503906 -15.226562 6.796875 -10.546875 5.476562 -6.429688 C 5.355469 -6.050781 5.332031 -5.796875 5.398438 -5.664062 C 5.484375 -5.507812 5.558594 -5.394531 5.628906 -5.324219 C 5.632812 -5.320312 5.636719 -5.316406 5.640625 -5.3125 C 5.628906 -5.320312 5.617188 -5.328125 5.601562 -5.332031 L 5.652344 -5.3125 L 5.703125 -5.289062 C 5.796875 -5.25 5.851562 -5.230469 5.875 -5.226562 C 5.816406 -5.230469 5.761719 -5.21875 5.710938 -5.195312 C 5.75 -5.214844 5.8125 -5.269531 5.898438 -5.359375 C 6.085938 -5.554688 6.285156 -5.832031 6.488281 -6.1875 L 6.527344 -6.257812 L 6.574219 -6.328125 C 6.855469 -6.769531 7.117188 -7.226562 7.355469 -7.699219 L 8.191406 -9.375 C 8.46875 -9.929688 8.753906 -10.492188 9.050781 -11.0625 C 9.359375 -11.664062 9.679688 -12.25 10.011719 -12.832031 L 10.066406 -12.929688 L 10.128906 -13.019531 C 10.585938 -13.703125 11.207031 -14.324219 11.996094 -14.882812 C 13.023438 -15.609375 14.074219 -15.972656 15.148438 -15.972656 L 15.230469 -15.972656 C 16.75 -15.933594 18.265625 -15.882812 19.785156 -15.824219 C 21.300781 -15.765625 22.78125 -15.699219 24.222656 -15.625 L 27.578125 -15.507812 L 30.941406 -15.390625 C 32.960938 -15.316406 34.472656 -14.621094 35.476562 -13.316406 C 36.136719 -12.457031 36.601562 -11.5 36.863281 -10.445312 L 33.710938 -9.65625 L 36.84375 -10.53125 C 37.230469 -9.144531 37.667969 -8.03125 38.15625 -7.199219 C 38.410156 -6.785156 38.71875 -6.503906 39.082031 -6.347656 C 39.34375 -6.238281 39.628906 -6.234375 39.941406 -6.335938 L 40.042969 -6.367188 C 40.316406 -6.445312 40.53125 -6.609375 40.6875 -6.859375 C 40.976562 -7.324219 41.132812 -7.976562 41.15625 -8.820312 L 44.40625 -8.730469 L 41.320312 -7.703125 C 41.179688 -8.117188 41.078125 -8.558594 41.011719 -9.023438 Z M 18.558594 -25.746094 L 29.371094 -25.746094 L 29.371094 -22.492188 L 26.449219 -21.0625 L 20.261719 -33.726562 L 23.1875 -35.15625 L 26.242188 -34.039062 L 21.617188 -21.375 L 18.558594 -22.492188 Z M 13.910156 -19.238281 L 22.753906 -43.449219 L 34.582031 -19.238281 Z M 13.910156 -19.238281 "/></g></g></g><g fill="#f0b97d" fill-opacity="1"><g transform="translate(76.158346, 157.488369)"><g><path d="M 39.402344 -34.019531 C 40.042969 -30.214844 39.691406 -26.648438 38.34375 -23.324219 C 37.003906 -20.019531 34.863281 -17.242188 31.929688 -14.996094 C 29.03125 -12.777344 25.582031 -11.335938 21.582031 -10.667969 L 21.046875 -13.875 L 21.683594 -10.6875 C 20.679688 -10.488281 19.597656 -10.398438 18.433594 -10.421875 C 17.488281 -10.441406 16.539062 -10.472656 15.589844 -10.511719 L 15.457031 -10.519531 C 15.042969 -10.554688 14.617188 -10.582031 14.179688 -10.597656 C 13.742188 -10.617188 13.3125 -10.625 12.894531 -10.625 L 12.257812 -10.625 L 12.257812 -13.875 L 15.507812 -14 L 15.566406 -12.5 C 15.605469 -11.824219 15.640625 -10.996094 15.679688 -10.015625 C 15.722656 -9.011719 15.742188 -8.175781 15.742188 -7.515625 L 15.742188 -6.902344 L 15.734375 -6.804688 C 15.695312 -6.117188 15.644531 -5.429688 15.585938 -4.746094 C 15.496094 -3.742188 15.269531 -2.816406 14.902344 -1.957031 L 11.910156 -3.238281 L 14.929688 -2.03125 C 14.203125 -0.214844 13.183594 1.105469 11.863281 1.925781 C 10.753906 2.613281 9.679688 3.027344 8.640625 3.167969 C 7.371094 3.355469 6.152344 3.246094 4.988281 2.835938 C 3.804688 2.417969 2.875 1.828125 2.195312 1.0625 L 4.625 -1.097656 L 2.820312 1.609375 L 2.648438 1.492188 L 4.453125 -1.214844 L 2.726562 1.542969 C 1.277344 0.636719 0.417969 -0.65625 0.144531 -2.339844 C -0.0078125 -3.273438 -0.0585938 -4.308594 -0.0117188 -5.453125 L -0.0117188 -5.496094 L 0.109375 -7.269531 L 0.222656 -9.054688 C 0.300781 -10.160156 0.367188 -11.292969 0.421875 -12.445312 C 0.476562 -13.570312 0.507812 -14.699219 0.507812 -15.84375 C 0.507812 -17.796875 0.421875 -19.769531 0.257812 -21.757812 C 0.0859375 -23.828125 -0.0976562 -25.878906 -0.289062 -27.910156 C -0.484375 -29.808594 -0.65625 -31.730469 -0.8125 -33.679688 C -0.972656 -35.671875 -1.074219 -37.664062 -1.113281 -39.65625 C -1.113281 -40.246094 -1.101562 -40.800781 -1.082031 -41.328125 C -1.058594 -41.945312 -0.996094 -42.550781 -0.894531 -43.148438 L -0.886719 -43.199219 L -0.875 -43.25 C -0.617188 -44.554688 -0.109375 -45.664062 0.640625 -46.574219 C 1.449219 -47.554688 2.480469 -48.25 3.738281 -48.65625 L 3.886719 -48.703125 L 4.035156 -48.738281 C 4.613281 -48.867188 5.195312 -48.929688 5.78125 -48.929688 C 7.613281 -48.929688 9.246094 -48.246094 10.683594 -46.875 L 8.441406 -44.523438 L 10.246094 -47.226562 C 10.789062 -46.867188 11.261719 -46.328125 11.671875 -45.613281 L 8.847656 -44 L 11.449219 -45.953125 C 11.601562 -45.75 11.730469 -45.566406 11.84375 -45.402344 L 9.136719 -43.597656 L 11.703125 -45.59375 L 12.109375 -45.074219 L 9.539062 -43.078125 L 7.589844 -45.679688 L 8.09375 -46.058594 L 8.136719 -46.085938 C 11.3125 -48.308594 14.921875 -49.597656 18.964844 -49.957031 C 22.523438 -50.230469 25.730469 -49.765625 28.585938 -48.558594 C 31.492188 -47.328125 33.894531 -45.460938 35.785156 -42.953125 C 37.65625 -40.476562 38.863281 -37.484375 39.410156 -33.980469 Z M 32.980469 -32.976562 C 32.601562 -35.40625 31.808594 -37.425781 30.59375 -39.035156 C 29.402344 -40.613281 27.886719 -41.792969 26.054688 -42.566406 C 24.167969 -43.363281 21.996094 -43.667969 19.542969 -43.480469 C 16.648438 -43.222656 14.09375 -42.316406 11.867188 -40.757812 L 10.003906 -43.421875 L 11.953125 -40.820312 L 8.933594 -38.558594 L 6.496094 -41.695312 L 6.429688 -41.792969 C 6.386719 -41.859375 6.324219 -41.945312 6.246094 -42.050781 L 6.125 -42.210938 L 6.023438 -42.386719 C 6.015625 -42.398438 6.011719 -42.40625 6.011719 -42.410156 C 6.023438 -42.390625 6.039062 -42.363281 6.0625 -42.335938 C 6.210938 -42.144531 6.402344 -41.972656 6.636719 -41.816406 L 6.402344 -41.972656 L 6.199219 -42.167969 C 6.015625 -42.339844 5.878906 -42.425781 5.78125 -42.425781 C 5.671875 -42.425781 5.5625 -42.414062 5.445312 -42.386719 L 4.742188 -45.5625 L 5.742188 -42.46875 C 5.699219 -42.453125 5.667969 -42.441406 5.652344 -42.429688 C 5.65625 -42.433594 5.660156 -42.4375 5.660156 -42.441406 C 5.601562 -42.367188 5.550781 -42.214844 5.503906 -41.976562 L 2.3125 -42.613281 L 5.519531 -42.078125 C 5.464844 -41.75 5.433594 -41.414062 5.417969 -41.066406 C 5.402344 -40.628906 5.390625 -40.203125 5.390625 -39.789062 C 5.429688 -37.925781 5.523438 -36.0625 5.671875 -34.199219 C 5.824219 -32.296875 5.996094 -30.402344 6.1875 -28.523438 C 6.378906 -26.46875 6.566406 -24.394531 6.738281 -22.300781 C 6.921875 -20.128906 7.011719 -17.976562 7.011719 -15.84375 C 7.011719 -14.59375 6.980469 -13.355469 6.921875 -12.128906 C 6.859375 -10.929688 6.792969 -9.765625 6.714844 -8.636719 L 6.597656 -6.835938 L 6.484375 -5.101562 L 3.238281 -5.320312 L 6.488281 -5.183594 C 6.457031 -4.480469 6.484375 -3.878906 6.5625 -3.382812 C 6.523438 -3.640625 6.394531 -3.835938 6.175781 -3.972656 L 6.214844 -3.945312 L 6.777344 -3.574219 L 7.054688 -3.257812 C 6.992188 -3.332031 6.933594 -3.382812 6.890625 -3.410156 C 6.945312 -3.378906 7.03125 -3.339844 7.152344 -3.296875 C 7.300781 -3.246094 7.507812 -3.242188 7.78125 -3.28125 C 7.898438 -3.296875 8.113281 -3.402344 8.429688 -3.601562 C 8.421875 -3.59375 8.414062 -3.589844 8.40625 -3.585938 L 8.410156 -3.589844 C 8.4375 -3.613281 8.46875 -3.648438 8.503906 -3.695312 C 8.632812 -3.875 8.761719 -4.125 8.890625 -4.445312 L 8.90625 -4.484375 L 8.921875 -4.519531 C 9.015625 -4.742188 9.078125 -5.007812 9.105469 -5.316406 C 9.160156 -5.941406 9.207031 -6.5625 9.242188 -7.1875 L 12.488281 -6.996094 L 9.238281 -6.996094 L 9.238281 -7.515625 C 9.238281 -8.089844 9.21875 -8.835938 9.179688 -9.757812 C 9.144531 -10.703125 9.105469 -11.535156 9.066406 -12.25 L 8.878906 -17.128906 L 12.894531 -17.128906 C 13.398438 -17.128906 13.914062 -17.117188 14.441406 -17.097656 C 14.96875 -17.078125 15.488281 -17.042969 15.996094 -17.003906 L 15.726562 -13.761719 L 15.863281 -17.011719 C 16.765625 -16.972656 17.667969 -16.945312 18.570312 -16.925781 C 19.257812 -16.910156 19.871094 -16.957031 20.410156 -17.066406 L 20.460938 -17.078125 L 20.511719 -17.085938 C 23.449219 -17.574219 25.9375 -18.597656 27.972656 -20.160156 C 29.972656 -21.691406 31.417969 -23.558594 32.3125 -25.765625 C 33.199219 -27.953125 33.425781 -30.34375 32.988281 -32.9375 Z M 21.175781 -28.664062 C 21.933594 -29.386719 22.40625 -30.089844 22.59375 -30.769531 C 22.757812 -31.367188 22.707031 -32.039062 22.441406 -32.777344 C 22.304688 -33.136719 22.132812 -33.359375 21.921875 -33.453125 L 23.242188 -36.425781 L 22.011719 -33.417969 C 21.699219 -33.542969 21.25 -33.570312 20.667969 -33.492188 C 19.910156 -33.390625 19.199219 -33.15625 18.53125 -32.792969 C 18.03125 -32.519531 17.683594 -32.214844 17.488281 -31.882812 C 16.09375 -29.628906 15.394531 -26.886719 15.394531 -23.648438 L 15.394531 -23.070312 L 12.140625 -23.070312 L 12.464844 -26.308594 L 13.042969 -26.25 L 12.71875 -23.011719 L 12.71875 -26.265625 L 13.992188 -26.265625 C 17.125 -26.265625 19.511719 -27.058594 21.15625 -28.648438 Z M 25.675781 -23.96875 C 22.773438 -21.164062 18.878906 -19.761719 13.992188 -19.761719 L 12.558594 -19.761719 L 8.890625 -20.125 L 8.890625 -23.648438 C 8.890625 -28.121094 9.886719 -31.96875 11.886719 -35.191406 C 12.691406 -36.550781 13.863281 -37.65625 15.410156 -38.5 C 16.785156 -39.253906 18.25 -39.730469 19.808594 -39.941406 C 21.535156 -40.171875 23.09375 -40.003906 24.476562 -39.4375 L 24.519531 -39.417969 L 24.566406 -39.398438 C 26.4375 -38.566406 27.765625 -37.097656 28.558594 -34.988281 C 29.292969 -32.953125 29.394531 -30.972656 28.867188 -29.046875 C 28.359375 -27.203125 27.289062 -25.503906 25.660156 -23.953125 Z M 25.675781 -23.96875 "/></g></g></g><g fill="#f0b97d" fill-opacity="1"><g transform="translate(114.777978, 157.488369)"><g><path d="M 17.007812 -34.5 C 17.285156 -30.257812 17.257812 -26.003906 16.917969 -21.742188 C 16.585938 -17.597656 16.1875 -13.519531 15.71875 -9.511719 L 15.371094 -6.027344 L 15.363281 -5.957031 C 15.191406 -4.765625 14.761719 -3.535156 14.078125 -2.265625 L 14.023438 -2.171875 C 13.296875 -0.933594 12.40625 0.0234375 11.351562 0.699219 C 10.203125 1.4375 8.921875 1.808594 7.515625 1.808594 C 6.15625 1.808594 4.925781 1.445312 3.824219 0.726562 C 2.816406 0.0664062 1.980469 -0.867188 1.316406 -2.070312 C 0.0742188 -4.316406 -0.621094 -6.808594 -0.761719 -9.546875 L 2.484375 -9.714844 L -0.757812 -9.464844 C -0.878906 -11.050781 -0.941406 -12.65625 -0.941406 -14.28125 C -0.941406 -15.851562 -0.921875 -17.402344 -0.878906 -18.933594 L 2.371094 -18.847656 L -0.882812 -18.847656 L -0.882812 -23.300781 L 2.371094 -23.300781 L 2.371094 -20.050781 L -1.394531 -20.050781 L -1.101562 -23.570312 C -1.066406 -23.988281 -1.042969 -24.414062 -1.023438 -24.847656 C -1.007812 -25.285156 -0.996094 -25.714844 -0.996094 -26.136719 L -0.996094 -26.222656 L -0.761719 -30.617188 C -0.683594 -32.089844 -0.585938 -33.570312 -0.46875 -35.0625 C -0.289062 -37.136719 0.0859375 -39.0625 0.664062 -40.84375 L 0.683594 -40.90625 L 0.707031 -40.96875 C 1.324219 -42.628906 2.3125 -43.949219 3.675781 -44.933594 C 5.109375 -45.96875 6.71875 -46.449219 8.503906 -46.382812 C 10.34375 -46.289062 11.894531 -45.761719 13.160156 -44.792969 C 14.445312 -43.816406 15.351562 -42.464844 15.886719 -40.742188 C 16.457031 -38.933594 16.832031 -36.863281 17.003906 -34.527344 Z M 10.519531 -34.046875 C 10.382812 -35.875 10.101562 -37.464844 9.671875 -38.820312 C 9.546875 -39.21875 9.394531 -39.484375 9.214844 -39.625 C 9.015625 -39.773438 8.699219 -39.863281 8.261719 -39.882812 C 7.96875 -39.894531 7.707031 -39.820312 7.480469 -39.65625 C 7.1875 -39.445312 6.964844 -39.128906 6.808594 -38.707031 L 3.757812 -39.839844 L 6.851562 -38.832031 C 6.425781 -37.527344 6.148438 -36.101562 6.019531 -34.550781 C 5.902344 -33.113281 5.808594 -31.6875 5.734375 -30.269531 L 5.503906 -25.960938 L 2.253906 -26.136719 L 5.507812 -26.136719 C 5.507812 -25.628906 5.496094 -25.113281 5.476562 -24.589844 C 5.453125 -24.058594 5.421875 -23.539062 5.378906 -23.03125 L 2.140625 -23.300781 L 2.140625 -26.554688 L 5.625 -26.554688 L 5.625 -18.808594 L 5.621094 -18.765625 C 5.585938 -17.289062 5.566406 -15.796875 5.566406 -14.28125 C 5.566406 -12.824219 5.621094 -11.382812 5.730469 -9.964844 L 5.730469 -9.921875 L 5.734375 -9.882812 C 5.824219 -8.144531 6.25 -6.589844 7.007812 -5.214844 C 7.15625 -4.953125 7.28125 -4.785156 7.390625 -4.714844 C 7.410156 -4.703125 7.449219 -4.699219 7.515625 -4.699219 C 7.652344 -4.699219 7.761719 -4.722656 7.84375 -4.777344 C 8.023438 -4.890625 8.210938 -5.117188 8.410156 -5.460938 L 11.21875 -3.816406 L 8.355469 -5.363281 C 8.671875 -5.949219 8.863281 -6.453125 8.921875 -6.878906 L 12.140625 -6.417969 L 8.90625 -6.742188 L 9.257812 -10.261719 C 9.714844 -14.195312 10.109375 -18.195312 10.433594 -22.257812 C 10.746094 -26.207031 10.773438 -30.144531 10.515625 -34.074219 Z M 10.519531 -34.046875 "/></g></g></g><g fill="#f0b97d" fill-opacity="1"><g transform="translate(130.90803, 157.488369)"><g/></g></g><g fill="#f0b97d" fill-opacity="1"><g transform="translate(147.500597, 157.488369)"><g><path d="M 33.90625 -40.425781 C 36.226562 -38.148438 38.019531 -35.476562 39.289062 -32.40625 C 40.550781 -29.347656 41.183594 -26.140625 41.183594 -22.78125 C 41.183594 -19.128906 40.445312 -15.828125 38.972656 -12.886719 C 37.496094 -9.933594 35.304688 -7.386719 32.398438 -5.246094 C 25.507812 -0.191406 17.9375 2.523438 9.6875 2.902344 C 7.269531 3.007812 4.933594 2.394531 2.683594 1.066406 L 4.335938 -1.734375 L 2.800781 1.132812 C 0.855469 0.0898438 -0.363281 -1.484375 -0.855469 -3.597656 L 2.3125 -4.335938 L -0.816406 -3.441406 C -1.460938 -5.703125 -1.09375 -7.96875 0.28125 -10.242188 C 0.71875 -10.953125 0.949219 -11.679688 0.96875 -12.410156 L 1.085938 -19.652344 L 1.199219 -26.996094 C 1.238281 -28.65625 1.265625 -30.320312 1.285156 -31.984375 C 1.304688 -33.671875 1.335938 -35.351562 1.375 -37.023438 L 4.625 -36.945312 L 1.375 -36.945312 C 1.375 -38.445312 1.53125 -39.683594 1.847656 -40.664062 C 2.289062 -42.019531 3.089844 -43.101562 4.253906 -43.902344 C 5.074219 -44.46875 6.179688 -44.976562 7.5625 -45.421875 C 8.5 -45.71875 9.476562 -45.984375 10.492188 -46.21875 C 11.425781 -46.433594 12.34375 -46.636719 13.242188 -46.832031 L 13.933594 -43.65625 L 13.144531 -46.808594 C 13.515625 -46.902344 13.886719 -46.984375 14.261719 -47.054688 C 14.503906 -47.097656 14.75 -47.152344 14.996094 -47.214844 L 18.414062 -48.070312 L 19.050781 -44.246094 L 15.84375 -43.710938 L 15.84375 -46.964844 L 16.363281 -46.964844 L 16.363281 -43.710938 L 16.234375 -46.960938 C 19.589844 -47.09375 22.792969 -46.605469 25.832031 -45.496094 C 28.914062 -44.371094 31.605469 -42.679688 33.90625 -40.425781 Z M 29.351562 -35.78125 C 27.71875 -37.378906 25.804688 -38.582031 23.601562 -39.386719 C 21.363281 -40.203125 18.992188 -40.5625 16.492188 -40.460938 L 13.085938 -40.460938 L 12.578125 -43.523438 L 15.785156 -44.058594 L 16.574219 -40.902344 C 16.203125 -40.8125 15.832031 -40.730469 15.460938 -40.660156 C 15.214844 -40.613281 14.96875 -40.558594 14.722656 -40.5 L 14.675781 -40.488281 L 14.625 -40.476562 C 13.75 -40.285156 12.855469 -40.085938 11.945312 -39.878906 C 11.105469 -39.683594 10.308594 -39.46875 9.550781 -39.226562 C 8.777344 -38.980469 8.242188 -38.753906 7.945312 -38.546875 C 7.992188 -38.582031 8.023438 -38.617188 8.039062 -38.664062 C 7.929688 -38.332031 7.878906 -37.761719 7.878906 -36.945312 L 7.878906 -36.871094 C 7.839844 -35.226562 7.808594 -33.574219 7.792969 -31.910156 C 7.773438 -30.21875 7.742188 -28.546875 7.703125 -26.894531 L 7.589844 -19.550781 L 7.472656 -12.21875 C 7.417969 -10.332031 6.875 -8.550781 5.847656 -6.875 C 5.449219 -6.21875 5.316406 -5.667969 5.441406 -5.230469 L 5.480469 -5.074219 C 5.507812 -4.960938 5.542969 -4.875 5.589844 -4.816406 C 5.644531 -4.746094 5.738281 -4.671875 5.871094 -4.601562 L 5.933594 -4.570312 L 5.992188 -4.535156 C 7.132812 -3.859375 8.265625 -3.546875 9.390625 -3.597656 C 16.332031 -3.914062 22.714844 -6.207031 28.542969 -10.484375 C 30.609375 -12.003906 32.148438 -13.773438 33.15625 -15.792969 C 34.171875 -17.824219 34.675781 -20.152344 34.675781 -22.78125 C 34.675781 -25.28125 34.210938 -27.660156 33.277344 -29.921875 C 32.347656 -32.171875 31.039062 -34.125 29.351562 -35.78125 Z M 21.511719 -19.558594 C 22.347656 -20.058594 23 -20.746094 23.46875 -21.625 C 23.953125 -22.527344 24.179688 -23.503906 24.15625 -24.554688 L 24.15625 -24.632812 C 24.15625 -25.753906 23.890625 -26.78125 23.363281 -27.710938 C 22.832031 -28.648438 22.109375 -29.394531 21.199219 -29.949219 C 20.34375 -30.476562 19.445312 -30.828125 18.507812 -31.003906 C 17.25 -31.242188 16.003906 -31.433594 14.769531 -31.578125 L 14.730469 -31.582031 L 13.878906 -31.703125 C 13.628906 -31.738281 13.359375 -31.777344 13.070312 -31.8125 L 13.023438 -31.816406 L 12.226562 -31.941406 L 12.71875 -35.15625 L 15.96875 -35.308594 L 17.066406 -12.007812 L 13.820312 -11.851562 L 12.289062 -14.722656 L 13.15625 -15.1875 C 13.695312 -15.476562 14.226562 -15.746094 14.753906 -16 C 15.21875 -16.222656 15.675781 -16.445312 16.121094 -16.671875 L 16.167969 -16.691406 L 16.214844 -16.714844 C 17.167969 -17.15625 18.085938 -17.605469 18.964844 -18.0625 C 19.796875 -18.496094 20.613281 -18.972656 21.410156 -19.492188 L 21.460938 -19.527344 Z M 24.859375 -13.980469 L 23.1875 -16.769531 L 24.960938 -14.042969 C 23.988281 -13.40625 22.988281 -12.824219 21.972656 -12.292969 C 21 -11.789062 19.988281 -11.292969 18.941406 -10.808594 L 17.578125 -13.761719 L 19.03125 -10.851562 C 18.554688 -10.613281 18.066406 -10.375 17.566406 -10.136719 C 17.132812 -9.925781 16.679688 -9.695312 16.21875 -9.445312 L 10.8125 -6.5625 L 9.285156 -38.972656 L 13.964844 -38.253906 L 13.472656 -35.039062 L 13.875 -38.265625 C 14.203125 -38.226562 14.511719 -38.183594 14.800781 -38.144531 L 15.609375 -38.027344 L 15.148438 -34.808594 L 15.527344 -38.039062 C 16.914062 -37.875 18.308594 -37.660156 19.710938 -37.398438 C 21.433594 -37.074219 23.058594 -36.441406 24.59375 -35.5 C 26.457031 -34.359375 27.933594 -32.835938 29.019531 -30.921875 C 30.113281 -28.996094 30.660156 -26.898438 30.660156 -24.632812 L 27.40625 -24.632812 L 30.660156 -24.707031 C 30.710938 -22.519531 30.226562 -20.46875 29.207031 -18.558594 C 28.171875 -16.625 26.722656 -15.097656 24.859375 -13.980469 Z M 24.859375 -13.980469 "/></g></g></g><g fill="#f0b97d" fill-opacity="1"><g transform="translate(187.623385, 157.488369)"><g><path d="M 20.910156 -30.390625 C 23.195312 -30.035156 25.195312 -29.195312 26.910156 -27.871094 C 28.632812 -26.539062 29.914062 -24.878906 30.75 -22.886719 C 31.605469 -20.855469 31.851562 -18.667969 31.488281 -16.324219 L 28.273438 -16.824219 L 31.5 -16.40625 C 31.1875 -13.996094 30.546875 -11.742188 29.578125 -9.648438 C 28.582031 -7.492188 27.1875 -5.542969 25.398438 -3.800781 C 22.285156 -0.785156 18.53125 0.699219 14.128906 0.648438 L 13.785156 0.648438 L 13.449219 0.570312 C 12.308594 0.3125 11.15625 0.0820312 9.992188 -0.121094 C 8.621094 -0.359375 7.277344 -0.699219 5.96875 -1.136719 C 2.910156 -2.222656 0.660156 -3.996094 -0.78125 -6.449219 C -2.207031 -8.878906 -2.691406 -11.664062 -2.234375 -14.808594 C -1.734375 -18.140625 -0.59375 -21.066406 1.1875 -23.589844 C 2.933594 -26.058594 5.214844 -28.144531 8.035156 -29.84375 C 10.921875 -31.554688 14.003906 -31.960938 17.28125 -31.0625 C 17.855469 -30.894531 18.414062 -30.765625 18.964844 -30.671875 C 19.582031 -30.5625 20.191406 -30.476562 20.789062 -30.40625 L 20.851562 -30.398438 Z M 19.910156 -23.960938 L 20.410156 -27.175781 L 20.03125 -23.945312 C 19.320312 -24.027344 18.597656 -24.132812 17.867188 -24.257812 C 17.066406 -24.394531 16.300781 -24.574219 15.5625 -24.789062 C 14.058594 -25.203125 12.667969 -25.03125 11.394531 -24.273438 C 9.355469 -23.042969 7.722656 -21.566406 6.5 -19.835938 C 5.3125 -18.152344 4.546875 -16.167969 4.203125 -13.871094 C 3.964844 -12.234375 4.171875 -10.859375 4.828125 -9.742188 C 5.46875 -8.648438 6.535156 -7.835938 8.023438 -7.304688 C 9.027344 -6.972656 10.058594 -6.710938 11.113281 -6.527344 C 12.378906 -6.308594 13.636719 -6.054688 14.882812 -5.773438 L 14.164062 -2.601562 L 14.203125 -5.855469 C 16.816406 -5.824219 19.035156 -6.695312 20.859375 -8.457031 C 22.074219 -9.644531 23.011719 -10.949219 23.675781 -12.378906 C 24.363281 -13.871094 24.820312 -15.492188 25.046875 -17.242188 L 25.054688 -17.285156 L 25.058594 -17.324219 C 25.234375 -18.453125 25.132812 -19.464844 24.757812 -20.363281 C 24.359375 -21.300781 23.753906 -22.089844 22.933594 -22.722656 C 22.101562 -23.363281 21.09375 -23.777344 19.910156 -23.960938 Z M 15.648438 -17.042969 C 15.664062 -17.089844 15.671875 -17.125 15.679688 -17.152344 C 15.675781 -17.078125 15.691406 -16.996094 15.71875 -16.902344 C 15.75 -16.796875 15.796875 -16.710938 15.855469 -16.636719 C 15.867188 -16.621094 15.875 -16.613281 15.882812 -16.605469 C 15.871094 -16.617188 15.851562 -16.628906 15.828125 -16.648438 C 14.96875 -17.261719 14.390625 -17.621094 14.085938 -17.734375 C 14.355469 -17.632812 14.652344 -17.613281 14.976562 -17.675781 C 15.300781 -17.734375 15.570312 -17.859375 15.789062 -18.050781 C 15.535156 -17.828125 15.121094 -17.292969 14.542969 -16.445312 L 13.980469 -15.601562 L 11.273438 -17.402344 L 14.101562 -15.796875 C 13.6875 -15.070312 13.433594 -14.503906 13.332031 -14.101562 C 13.320312 -14.058594 13.3125 -14.023438 13.308594 -14.003906 C 13.3125 -14.019531 13.3125 -14.050781 13.3125 -14.089844 C 13.304688 -14.320312 13.234375 -14.5625 13.101562 -14.808594 C 12.964844 -15.058594 12.800781 -15.253906 12.601562 -15.394531 C 12.566406 -15.417969 12.539062 -15.4375 12.515625 -15.449219 C 12.535156 -15.441406 12.558594 -15.429688 12.597656 -15.417969 C 12.976562 -15.285156 13.574219 -15.203125 14.390625 -15.160156 C 14.5625 -15.152344 14.699219 -15.167969 14.796875 -15.195312 C 14.765625 -15.1875 14.730469 -15.164062 14.6875 -15.121094 C 14.757812 -15.1875 14.863281 -15.347656 15.003906 -15.597656 C 15.222656 -15.992188 15.449219 -16.503906 15.679688 -17.132812 L 18.734375 -16.015625 Z M 21.820312 -14.988281 L 21.804688 -14.941406 L 21.789062 -14.898438 C 21.035156 -12.835938 20.148438 -11.328125 19.140625 -10.378906 C 17.847656 -9.164062 16.152344 -8.59375 14.054688 -8.664062 C 12.636719 -8.734375 11.453125 -8.933594 10.5 -9.257812 C 9.027344 -9.761719 7.984375 -10.585938 7.367188 -11.730469 C 6.757812 -12.867188 6.644531 -14.1875 7.023438 -15.691406 C 7.269531 -16.664062 7.742188 -17.773438 8.449219 -19.011719 L 8.503906 -19.113281 L 9.160156 -20.097656 C 10.050781 -21.40625 10.832031 -22.355469 11.503906 -22.945312 C 12.183594 -23.539062 12.945312 -23.914062 13.789062 -24.070312 C 14.632812 -24.226562 15.480469 -24.152344 16.328125 -23.839844 C 17.179688 -23.527344 18.257812 -22.90625 19.558594 -21.976562 C 20.738281 -21.148438 21.527344 -20.109375 21.921875 -18.859375 C 22.308594 -17.640625 22.273438 -16.347656 21.820312 -14.988281 Z M 21.820312 -14.988281 "/></g></g></g><g fill="#f0b97d" fill-opacity="1"><g transform="translate(217.397498, 157.488369)"><g><path d="M 29.558594 -24.890625 L 29.992188 -15.089844 C 30.128906 -11.71875 30.160156 -8.375 30.082031 -5.070312 C 29.988281 -2.332031 29.421875 0.265625 28.375 2.71875 C 27.355469 5.117188 25.960938 7.332031 24.195312 9.363281 C 22.863281 10.925781 21.339844 12.222656 19.632812 13.25 C 17.816406 14.347656 15.78125 15.015625 13.535156 15.261719 L 13.183594 12.027344 L 13.628906 15.25 C 11.996094 15.472656 10.460938 15.335938 9.023438 14.839844 C 7.378906 14.269531 6.027344 13.171875 4.96875 11.550781 L 4.921875 11.480469 C 4.222656 10.347656 3.84375 9.175781 3.789062 7.964844 C 3.734375 6.714844 4.023438 5.507812 4.660156 4.339844 C 5.761719 2.328125 7.613281 0.875 10.226562 -0.015625 C 10.996094 -0.292969 11.777344 -0.835938 12.570312 -1.644531 C 13.457031 -2.546875 14.191406 -3.59375 14.769531 -4.777344 C 15.296875 -5.859375 15.574219 -6.878906 15.597656 -7.835938 L 18.847656 -7.746094 L 19.636719 -4.59375 C 19.566406 -4.574219 19.511719 -4.558594 19.472656 -4.546875 C 19.632812 -4.601562 19.777344 -4.667969 19.902344 -4.753906 L 19.851562 -4.71875 L 19.800781 -4.6875 C 17.195312 -3.085938 14.574219 -2.386719 11.941406 -2.597656 C 9.359375 -2.804688 6.90625 -3.824219 4.578125 -5.65625 C 2.179688 -7.515625 0.519531 -9.839844 -0.398438 -12.625 C -1.328125 -15.429688 -1.363281 -18.257812 -0.515625 -21.109375 C 0.511719 -24.515625 2.207031 -27.273438 4.574219 -29.375 C 6.855469 -31.402344 9.605469 -32.871094 12.820312 -33.777344 C 14.46875 -34.253906 16.101562 -34.363281 17.71875 -34.101562 C 19.316406 -33.84375 20.851562 -33.230469 22.320312 -32.261719 C 22.390625 -32.210938 22.472656 -32.167969 22.558594 -32.132812 C 22.667969 -32.082031 22.792969 -32.042969 22.933594 -32.007812 L 22.144531 -28.851562 L 22.710938 -32.054688 C 24.609375 -31.71875 26.128906 -31.058594 27.273438 -30.074219 C 28.664062 -28.878906 29.425781 -27.164062 29.554688 -24.9375 Z M 23.0625 -24.554688 C 23.042969 -24.855469 23.003906 -25.078125 22.945312 -25.226562 L 22.945312 -25.238281 C 22.964844 -25.207031 22.996094 -25.175781 23.03125 -25.144531 C 22.789062 -25.351562 22.304688 -25.523438 21.578125 -25.648438 L 21.46875 -25.667969 L 21.355469 -25.695312 C 20.878906 -25.816406 20.425781 -25.96875 19.996094 -26.152344 C 19.542969 -26.347656 19.121094 -26.574219 18.734375 -26.832031 C 18.042969 -27.289062 17.359375 -27.570312 16.683594 -27.679688 C 16.027344 -27.785156 15.328125 -27.730469 14.585938 -27.515625 C 12.328125 -26.878906 10.433594 -25.878906 8.898438 -24.511719 C 7.449219 -23.226562 6.386719 -21.46875 5.71875 -19.25 C 5.257812 -17.707031 5.277344 -16.175781 5.777344 -14.664062 C 6.28125 -13.136719 7.226562 -11.835938 8.601562 -10.765625 C 9.898438 -9.746094 11.183594 -9.183594 12.460938 -9.082031 C 13.679688 -8.984375 14.992188 -9.367188 16.394531 -10.230469 L 18.097656 -7.457031 L 16.292969 -10.164062 C 16.652344 -10.402344 17.023438 -10.585938 17.417969 -10.71875 C 17.609375 -10.78125 17.824219 -10.84375 18.0625 -10.902344 L 22.214844 -11.941406 L 22.101562 -7.660156 C 22.050781 -5.765625 21.554688 -3.855469 20.617188 -1.929688 C 19.730469 -0.109375 18.59375 1.507812 17.207031 2.917969 C 15.726562 4.421875 14.097656 5.5 12.324219 6.144531 C 11.3125 6.488281 10.660156 6.925781 10.371094 7.457031 C 10.316406 7.558594 10.285156 7.632812 10.289062 7.675781 C 10.292969 7.757812 10.347656 7.886719 10.457031 8.0625 L 7.691406 9.773438 L 10.414062 7.992188 C 10.664062 8.375 10.910156 8.609375 11.15625 8.695312 C 11.609375 8.851562 12.136719 8.886719 12.738281 8.804688 L 12.785156 8.796875 L 12.832031 8.792969 C 14.128906 8.652344 15.277344 8.28125 16.273438 7.679688 C 17.378906 7.015625 18.382812 6.152344 19.285156 5.09375 C 20.601562 3.578125 21.636719 1.9375 22.390625 0.171875 C 23.117188 -1.539062 23.515625 -3.335938 23.578125 -5.222656 C 23.652344 -8.390625 23.625 -11.585938 23.492188 -14.804688 L 23.058594 -24.601562 Z M 12.09375 -17.847656 C 13.027344 -18.519531 13.792969 -19.28125 14.390625 -20.136719 C 14.890625 -20.847656 15.203125 -21.726562 15.332031 -22.769531 L 18.558594 -22.375 L 17.734375 -19.230469 C 17.617188 -19.261719 17.449219 -19.242188 17.226562 -19.167969 C 16.777344 -19.023438 16.355469 -18.789062 15.953125 -18.460938 C 15.523438 -18.113281 15.183594 -17.738281 14.933594 -17.335938 C 14.886719 -17.257812 14.859375 -17.203125 14.847656 -17.171875 C 14.859375 -17.207031 14.859375 -17.25 14.855469 -17.300781 C 14.847656 -17.371094 14.816406 -17.453125 14.761719 -17.550781 C 14.6875 -17.691406 14.589844 -17.808594 14.472656 -17.898438 C 14.210938 -18.101562 13.882812 -18.21875 13.492188 -18.246094 C 13.039062 -18.28125 12.636719 -18.191406 12.289062 -17.976562 L 13.992188 -15.207031 Z M 15.890625 -12.566406 L 15.796875 -12.496094 L 15.695312 -12.4375 C 14.847656 -11.914062 13.945312 -11.6875 12.992188 -11.761719 C 12.097656 -11.832031 11.269531 -12.15625 10.507812 -12.746094 C 9.273438 -13.691406 8.566406 -14.972656 8.390625 -16.582031 C 8.230469 -18.023438 8.570312 -19.417969 9.410156 -20.769531 C 10.042969 -21.792969 10.859375 -22.707031 11.855469 -23.515625 C 12.882812 -24.347656 14 -24.960938 15.210938 -25.351562 C 16.648438 -25.820312 18.039062 -25.875 19.386719 -25.523438 L 22.132812 -24.800781 L 21.789062 -21.984375 C 21.53125 -19.863281 20.839844 -18.007812 19.722656 -16.40625 C 18.699219 -14.949219 17.421875 -13.667969 15.890625 -12.566406 Z M 15.890625 -12.566406 "/></g></g></g><g fill="#000000" fill-opacity="1"><g transform="translate(29.618226, 157.488369)"><g><path d="M 44.234375 -9.484375 C 44.273438 -9.210938 44.332031 -8.960938 44.40625 -8.734375 C 44.375 -7.304688 44.054688 -6.109375 43.453125 -5.140625 C 42.859375 -4.179688 42.019531 -3.546875 40.9375 -3.234375 C 39.863281 -2.890625 38.820312 -2.925781 37.8125 -3.34375 C 36.8125 -3.769531 36.003906 -4.488281 35.390625 -5.5 C 34.734375 -6.613281 34.175781 -8 33.71875 -9.65625 C 33.5625 -10.269531 33.289062 -10.828125 32.90625 -11.328125 C 32.519531 -11.835938 31.828125 -12.109375 30.828125 -12.140625 C 29.703125 -12.179688 28.582031 -12.21875 27.46875 -12.25 C 26.351562 -12.289062 25.234375 -12.332031 24.109375 -12.375 C 22.648438 -12.445312 21.164062 -12.515625 19.65625 -12.578125 C 18.15625 -12.640625 16.65625 -12.6875 15.15625 -12.71875 C 14.769531 -12.71875 14.34375 -12.550781 13.875 -12.21875 C 13.414062 -11.894531 13.070312 -11.5625 12.84375 -11.21875 C 12.53125 -10.675781 12.226562 -10.125 11.9375 -9.5625 C 11.644531 -9.007812 11.367188 -8.460938 11.109375 -7.921875 C 10.835938 -7.378906 10.554688 -6.816406 10.265625 -6.234375 C 9.972656 -5.660156 9.65625 -5.101562 9.3125 -4.5625 C 7.957031 -2.21875 6.316406 -1.46875 4.390625 -2.3125 C 3.617188 -2.625 2.992188 -3.238281 2.515625 -4.15625 C 2.035156 -5.082031 1.988281 -6.164062 2.375 -7.40625 C 3.71875 -11.601562 5.453125 -16.363281 7.578125 -21.6875 C 8.921875 -25.082031 10.617188 -28.898438 12.671875 -33.140625 C 13.242188 -34.328125 13.882812 -35.585938 14.59375 -36.921875 C 15.3125 -38.253906 16.09375 -39.554688 16.9375 -40.828125 C 17.832031 -42.097656 19.125 -43.21875 20.8125 -44.1875 C 22.082031 -44.957031 23.300781 -45.34375 24.46875 -45.34375 C 26.507812 -45.34375 28.203125 -44.203125 29.546875 -41.921875 C 32.210938 -37.378906 34.816406 -32.648438 37.359375 -27.734375 C 39.898438 -22.816406 41.960938 -17.640625 43.546875 -12.203125 C 43.703125 -11.703125 43.835938 -11.21875 43.953125 -10.75 C 44.066406 -10.289062 44.160156 -9.867188 44.234375 -9.484375 Z M 18.5625 -22.5 L 29.375 -22.5 L 23.1875 -35.15625 Z M 18.5625 -22.5 "/></g></g></g><g fill="#000000" fill-opacity="1"><g transform="translate(76.158346, 157.488369)"><g><path d="M 36.203125 -33.484375 C 36.742188 -30.285156 36.453125 -27.304688 35.328125 -24.546875 C 34.210938 -21.785156 32.421875 -19.460938 29.953125 -17.578125 C 27.484375 -15.691406 24.515625 -14.457031 21.046875 -13.875 C 20.273438 -13.71875 19.425781 -13.648438 18.5 -13.671875 C 17.570312 -13.691406 16.648438 -13.722656 15.734375 -13.765625 C 15.265625 -13.804688 14.789062 -13.832031 14.3125 -13.84375 C 13.832031 -13.863281 13.359375 -13.875 12.890625 -13.875 L 12.265625 -13.875 L 12.3125 -12.375 C 12.351562 -11.675781 12.390625 -10.84375 12.421875 -9.875 C 12.460938 -8.914062 12.484375 -8.128906 12.484375 -7.515625 L 12.484375 -7 C 12.453125 -6.34375 12.40625 -5.6875 12.34375 -5.03125 C 12.289062 -4.375 12.144531 -3.773438 11.90625 -3.234375 C 11.445312 -2.078125 10.859375 -1.273438 10.140625 -0.828125 C 9.429688 -0.390625 8.789062 -0.132812 8.21875 -0.0625 C 7.445312 0.0507812 6.734375 -0.00390625 6.078125 -0.234375 C 5.421875 -0.460938 4.9375 -0.75 4.625 -1.09375 L 4.453125 -1.21875 C 3.835938 -1.601562 3.472656 -2.148438 3.359375 -2.859375 C 3.242188 -3.578125 3.203125 -4.394531 3.234375 -5.3125 C 3.273438 -5.894531 3.3125 -6.472656 3.34375 -7.046875 C 3.382812 -7.628906 3.425781 -8.226562 3.46875 -8.84375 C 3.539062 -9.96875 3.609375 -11.113281 3.671875 -12.28125 C 3.734375 -13.457031 3.765625 -14.644531 3.765625 -15.84375 C 3.765625 -17.882812 3.675781 -19.945312 3.5 -22.03125 C 3.320312 -24.113281 3.140625 -26.175781 2.953125 -28.21875 C 2.753906 -30.101562 2.578125 -32.007812 2.421875 -33.9375 C 2.273438 -35.875 2.179688 -37.804688 2.140625 -39.734375 C 2.140625 -40.234375 2.148438 -40.722656 2.171875 -41.203125 C 2.191406 -41.679688 2.238281 -42.15625 2.3125 -42.625 C 2.625 -44.164062 3.429688 -45.144531 4.734375 -45.5625 C 5.085938 -45.644531 5.4375 -45.6875 5.78125 -45.6875 C 6.75 -45.6875 7.632812 -45.300781 8.4375 -44.53125 C 8.550781 -44.445312 8.6875 -44.269531 8.84375 -44 C 8.957031 -43.851562 9.054688 -43.722656 9.140625 -43.609375 L 9.546875 -43.078125 L 10 -43.421875 C 12.695312 -45.316406 15.78125 -46.414062 19.25 -46.71875 C 22.257812 -46.957031 24.945312 -46.570312 27.3125 -45.5625 C 29.6875 -44.5625 31.644531 -43.039062 33.1875 -41 C 34.726562 -38.957031 35.734375 -36.453125 36.203125 -33.484375 Z M 23.421875 -26.3125 C 25.804688 -28.582031 26.5 -31.109375 25.5 -33.890625 C 25.039062 -35.117188 24.289062 -35.96875 23.25 -36.4375 C 22.394531 -36.78125 21.390625 -36.875 20.234375 -36.71875 C 19.078125 -36.5625 17.988281 -36.203125 16.96875 -35.640625 C 15.945312 -35.085938 15.1875 -34.390625 14.6875 -33.546875 C 12.988281 -30.804688 12.140625 -27.507812 12.140625 -23.65625 L 12.140625 -23.078125 L 12.71875 -23.015625 C 13.1875 -23.015625 13.613281 -23.015625 14 -23.015625 C 18.007812 -23.015625 21.148438 -24.113281 23.421875 -26.3125 Z M 23.421875 -26.3125 "/></g></g></g><g fill="#000000" fill-opacity="1"><g transform="translate(114.777978, 157.488369)"><g><path d="M 13.765625 -34.296875 C 14.035156 -30.203125 14.003906 -26.101562 13.671875 -22 C 13.347656 -17.894531 12.953125 -13.859375 12.484375 -9.890625 L 12.140625 -6.421875 C 12.023438 -5.609375 11.71875 -4.738281 11.21875 -3.8125 C 10.289062 -2.238281 9.054688 -1.453125 7.515625 -1.453125 C 6.085938 -1.453125 4.96875 -2.179688 4.15625 -3.640625 C 3.15625 -5.453125 2.597656 -7.476562 2.484375 -9.71875 C 2.367188 -11.21875 2.3125 -12.738281 2.3125 -14.28125 C 2.3125 -15.820312 2.332031 -17.347656 2.375 -18.859375 C 2.375 -19.472656 2.375 -20.097656 2.375 -20.734375 C 2.375 -21.367188 2.375 -22.015625 2.375 -22.671875 L 2.375 -23.3125 L 2.140625 -23.3125 C 2.179688 -23.769531 2.207031 -24.238281 2.21875 -24.71875 C 2.238281 -25.195312 2.25 -25.671875 2.25 -26.140625 C 2.332031 -27.566406 2.410156 -29 2.484375 -30.4375 C 2.566406 -31.882812 2.664062 -33.34375 2.78125 -34.8125 C 2.925781 -36.625 3.253906 -38.300781 3.765625 -39.84375 C 4.148438 -40.882812 4.753906 -41.703125 5.578125 -42.296875 C 6.410156 -42.898438 7.347656 -43.179688 8.390625 -43.140625 C 10.660156 -43.023438 12.125 -41.90625 12.78125 -39.78125 C 13.28125 -38.207031 13.609375 -36.378906 13.765625 -34.296875 Z M 13.765625 -34.296875 "/></g></g></g><g fill="#000000" fill-opacity="1"><g transform="translate(130.90803, 157.488369)"><g/></g></g><g fill="#000000" fill-opacity="1"><g transform="translate(147.500597, 157.488369)"><g><path d="M 31.625 -38.109375 C 33.632812 -36.140625 35.1875 -33.820312 36.28125 -31.15625 C 37.382812 -28.5 37.9375 -25.707031 37.9375 -22.78125 C 37.9375 -16.5 35.445312 -11.523438 30.46875 -7.859375 C 24.113281 -3.203125 17.140625 -0.695312 9.546875 -0.34375 C 7.765625 -0.269531 6.03125 -0.734375 4.34375 -1.734375 C 3.257812 -2.316406 2.582031 -3.1875 2.3125 -4.34375 C 1.925781 -5.6875 2.175781 -7.09375 3.0625 -8.5625 C 3.789062 -9.75 4.175781 -11 4.21875 -12.3125 C 4.257812 -14.738281 4.296875 -17.164062 4.328125 -19.59375 C 4.367188 -22.03125 4.410156 -24.484375 4.453125 -26.953125 C 4.492188 -28.609375 4.519531 -30.273438 4.53125 -31.953125 C 4.550781 -33.628906 4.582031 -35.296875 4.625 -36.953125 C 4.625 -38.109375 4.726562 -39.015625 4.9375 -39.671875 C 5.15625 -40.328125 5.539062 -40.847656 6.09375 -41.234375 C 6.65625 -41.617188 7.476562 -41.984375 8.5625 -42.328125 C 9.40625 -42.597656 10.289062 -42.835938 11.21875 -43.046875 C 12.144531 -43.265625 13.050781 -43.46875 13.9375 -43.65625 C 14.25 -43.738281 14.554688 -43.804688 14.859375 -43.859375 C 15.171875 -43.921875 15.476562 -43.988281 15.78125 -44.0625 L 15.84375 -43.71875 L 16.359375 -43.71875 C 19.296875 -43.832031 22.082031 -43.40625 24.71875 -42.4375 C 27.363281 -41.476562 29.664062 -40.035156 31.625 -38.109375 Z M 23.1875 -16.765625 C 24.539062 -17.578125 25.59375 -18.6875 26.34375 -20.09375 C 27.09375 -21.5 27.445312 -23.015625 27.40625 -24.640625 C 27.40625 -26.328125 27 -27.882812 26.1875 -29.3125 C 25.382812 -30.738281 24.289062 -31.878906 22.90625 -32.734375 C 21.707031 -33.460938 20.441406 -33.953125 19.109375 -34.203125 C 17.773438 -34.453125 16.457031 -34.65625 15.15625 -34.8125 C 14.882812 -34.851562 14.613281 -34.890625 14.34375 -34.921875 C 14.070312 -34.960938 13.78125 -35.003906 13.46875 -35.046875 L 12.71875 -35.15625 L 13.828125 -11.859375 L 14.6875 -12.3125 C 15.1875 -12.582031 15.675781 -12.832031 16.15625 -13.0625 C 16.644531 -13.300781 17.117188 -13.535156 17.578125 -13.765625 C 18.578125 -14.222656 19.539062 -14.691406 20.46875 -15.171875 C 21.394531 -15.660156 22.300781 -16.191406 23.1875 -16.765625 Z M 23.1875 -16.765625 "/></g></g></g><g fill="#000000" fill-opacity="1"><g transform="translate(187.623385, 157.488369)"><g><path d="M 20.40625 -27.171875 C 22.144531 -26.910156 23.648438 -26.285156 24.921875 -25.296875 C 26.191406 -24.316406 27.132812 -23.09375 27.75 -21.625 C 28.375 -20.164062 28.550781 -18.566406 28.28125 -16.828125 C 28.007812 -14.742188 27.457031 -12.804688 26.625 -11.015625 C 25.800781 -9.222656 24.632812 -7.59375 23.125 -6.125 C 20.664062 -3.738281 17.679688 -2.566406 14.171875 -2.609375 C 12.972656 -2.867188 11.765625 -3.101562 10.546875 -3.3125 C 9.335938 -3.53125 8.15625 -3.832031 7 -4.21875 C 4.71875 -5.03125 3.054688 -6.320312 2.015625 -8.09375 C 0.984375 -9.863281 0.640625 -11.945312 0.984375 -14.34375 C 1.410156 -17.15625 2.363281 -19.609375 3.84375 -21.703125 C 5.332031 -23.804688 7.289062 -25.59375 9.71875 -27.0625 C 11.800781 -28.300781 14.035156 -28.59375 16.421875 -27.9375 C 17.078125 -27.738281 17.742188 -27.582031 18.421875 -27.46875 C 19.097656 -27.351562 19.757812 -27.253906 20.40625 -27.171875 Z M 18.734375 -16.015625 C 19.203125 -17.398438 18.859375 -18.5 17.703125 -19.3125 C 16.617188 -20.082031 15.785156 -20.570312 15.203125 -20.78125 C 14.628906 -21 14.109375 -20.90625 13.640625 -20.5 C 13.179688 -20.09375 12.585938 -19.351562 11.859375 -18.28125 C 11.617188 -17.925781 11.425781 -17.632812 11.28125 -17.40625 C 10.15625 -15.4375 9.804688 -14.054688 10.234375 -13.265625 C 10.660156 -12.484375 11.988281 -12.03125 14.21875 -11.90625 C 15.375 -11.875 16.269531 -12.15625 16.90625 -12.75 C 17.550781 -13.34375 18.160156 -14.429688 18.734375 -16.015625 Z M 18.734375 -16.015625 "/></g></g></g><g fill="#000000" fill-opacity="1"><g transform="translate(217.397498, 157.488369)"><g><path d="M 26.3125 -24.75 C 26.46875 -21.507812 26.613281 -18.238281 26.75 -14.9375 C 26.882812 -11.644531 26.910156 -8.378906 26.828125 -5.140625 C 26.753906 -2.828125 26.273438 -0.632812 25.390625 1.4375 C 24.503906 3.519531 23.289062 5.453125 21.75 7.234375 C 20.625 8.535156 19.359375 9.609375 17.953125 10.453125 C 16.546875 11.304688 14.957031 11.832031 13.1875 12.03125 C 12.0625 12.1875 11.023438 12.097656 10.078125 11.765625 C 9.140625 11.441406 8.34375 10.773438 7.6875 9.765625 C 6.882812 8.460938 6.828125 7.171875 7.515625 5.890625 C 8.210938 4.617188 9.46875 3.675781 11.28125 3.0625 C 12.550781 2.601562 13.753906 1.796875 14.890625 0.640625 C 16.023438 -0.515625 16.957031 -1.84375 17.6875 -3.34375 C 18.425781 -4.851562 18.816406 -6.320312 18.859375 -7.75 C 18.703125 -7.707031 18.566406 -7.664062 18.453125 -7.625 C 18.335938 -7.59375 18.21875 -7.535156 18.09375 -7.453125 C 16.09375 -6.222656 14.128906 -5.6875 12.203125 -5.84375 C 10.273438 -6 8.40625 -6.789062 6.59375 -8.21875 C 4.707031 -9.675781 3.40625 -11.484375 2.6875 -13.640625 C 1.976562 -15.804688 1.953125 -17.988281 2.609375 -20.1875 C 3.453125 -23 4.828125 -25.253906 6.734375 -26.953125 C 8.640625 -28.648438 10.960938 -29.882812 13.703125 -30.65625 C 16.097656 -31.34375 18.375 -30.972656 20.53125 -29.546875 C 20.757812 -29.390625 21.007812 -29.253906 21.28125 -29.140625 C 21.550781 -29.023438 21.835938 -28.929688 22.140625 -28.859375 C 23.453125 -28.628906 24.457031 -28.210938 25.15625 -27.609375 C 25.851562 -27.015625 26.238281 -26.0625 26.3125 -24.75 Z M 14 -15.203125 C 15.226562 -16.085938 16.25 -17.109375 17.0625 -18.265625 C 17.875 -19.429688 18.375 -20.800781 18.5625 -22.375 C 17.832031 -22.570312 17.050781 -22.535156 16.21875 -22.265625 C 15.394531 -21.992188 14.625 -21.566406 13.90625 -20.984375 C 13.195312 -20.410156 12.617188 -19.765625 12.171875 -19.046875 C 11.722656 -18.335938 11.539062 -17.632812 11.625 -16.9375 C 11.695312 -16.25 11.984375 -15.710938 12.484375 -15.328125 C 12.992188 -14.941406 13.5 -14.898438 14 -15.203125 Z M 14 -15.203125 "/></g></g></g></svg>